{"glyphs":{"0":{"ha":833,"x_min":0,"x_max":0,"o":"m 417 -14 b 708 194 617 -14 665 13 b 735 472 722 253 735 326 b 707 750 735 618 721 692 b 417 958 664 932 617 958 b 126 750 217 958 169 932 b 99 472 113 692 99 618 b 125 194 99 326 111 253 b 417 -14 168 13 217 -14 z m 217 472 b 238 714 217 610 231 674 b 417 856 256 815 282 856 b 586 760 529 856 565 828 l 228 286 b 217 472 222 326 217 385 z m 250 178 l 606 651 b 617 472 611 611 617 556 b 596 231 617 335 603 271 b 417 89 578 129 551 89 b 250 178 308 89 269 115 z "},"1":{"ha":833,"x_min":0,"x_max":0,"o":"m 446 0 l 563 0 l 563 944 l 429 944 l 147 742 l 147 611 l 351 740 l 446 819 l 454 819 l 446 678 z "},"2":{"ha":833,"x_min":0,"x_max":0,"o":"m 121 175 l 121 0 l 724 0 l 724 111 l 244 111 l 244 131 b 610 482 393 260 476 340 b 703 693 682 560 703 607 b 407 958 703 897 635 958 b 101 719 186 958 117 904 l 225 719 b 408 853 236 822 278 853 b 585 696 544 853 585 817 b 532 563 585 642 572 611 b 121 175 454 465 360 378 z "},"3":{"ha":833,"x_min":0,"x_max":0,"o":"m 346 -12 b 685 294 597 -12 685 67 b 376 563 685 511 593 581 l 375 565 l 635 813 l 635 944 l 124 944 l 124 843 l 524 843 l 524 838 l 263 589 l 263 458 b 568 299 492 493 568 453 b 340 93 568 146 510 93 b 104 156 261 93 200 110 l 104 35 b 346 -12 186 0 247 -12 z "},"4":{"ha":833,"x_min":0,"x_max":0,"o":"m 111 178 l 492 178 l 492 0 l 603 0 l 603 178 l 736 178 l 736 283 l 603 283 l 603 514 l 492 514 l 492 283 l 231 283 l 231 314 l 551 958 l 425 958 l 111 314 z "},"5":{"ha":833,"x_min":0,"x_max":0,"o":"m 356 -10 b 701 306 610 -10 701 74 b 431 604 701 510 631 583 b 264 594 360 611 313 608 l 282 839 l 661 842 l 661 944 l 181 944 l 143 479 b 429 493 292 499 365 501 b 585 306 544 478 585 432 b 365 96 585 151 525 96 b 117 161 279 96 218 113 l 117 38 b 356 -10 197 3 258 -10 z "},"6":{"ha":833,"x_min":0,"x_max":0,"o":"m 418 -14 b 724 292 671 -14 724 39 b 447 586 724 536 676 586 b 236 506 339 586 257 561 l 229 511 b 617 958 256 603 296 675 l 454 958 b 110 296 128 664 110 543 b 418 -14 110 39 163 -14 z m 225 296 b 418 485 228 453 261 485 b 610 290 576 485 610 451 b 418 85 610 119 576 85 b 225 296 256 85 222 121 z "},"7":{"ha":833,"x_min":0,"x_max":0,"o":"m 151 -14 l 285 -14 l 688 800 l 688 944 l 96 944 l 96 831 l 575 831 z "},"8":{"ha":833,"x_min":0,"x_max":0,"o":"m 415 -14 b 728 251 674 -14 728 32 b 550 506 728 381 697 424 l 550 514 b 703 732 676 582 703 619 b 415 958 703 919 654 958 b 129 732 178 958 129 919 b 282 514 129 619 156 582 l 282 506 b 106 251 136 425 106 382 b 415 -14 106 32 158 -14 z m 221 246 b 415 464 221 368 254 406 b 613 243 579 404 613 367 b 415 89 613 115 579 89 b 221 246 254 89 221 115 z m 244 732 b 415 857 244 836 274 857 b 588 731 558 857 588 835 b 415 557 588 628 558 599 b 244 732 274 597 244 628 z "},"9":{"ha":833,"x_min":0,"x_max":0,"o":"m 226 -14 l 381 -14 b 715 642 658 290 715 403 b 407 958 715 904 663 958 b 101 647 154 958 101 906 b 389 346 101 397 150 346 b 561 411 488 346 518 357 l 568 406 b 226 -14 446 219 388 147 z m 215 646 b 407 860 215 824 249 860 b 601 642 571 860 604 822 b 404 444 599 478 565 444 b 215 646 247 444 215 479 z "}," ":{"ha":833,"x_min":0,"x_max":0,"o":""},"A":{"ha":833,"x_min":0,"x_max":0,"o":"m 57 0 l 175 0 l 243 239 l 592 239 l 661 0 l 779 0 l 508 944 l 328 944 z m 271 343 l 413 843 l 424 843 l 565 343 z "},"Á":{"ha":833,"x_min":0,"x_max":0,"o":"m 57 0 l 175 0 l 243 239 l 592 239 l 661 0 l 779 0 l 508 944 l 328 944 z m 269 1056 l 408 1056 l 624 1301 l 461 1301 z m 271 343 l 413 843 l 424 843 l 565 343 z "},"Ă":{"ha":833,"x_min":0,"x_max":0,"o":"m 57 0 l 175 0 l 243 239 l 592 239 l 661 0 l 779 0 l 508 944 l 328 944 z m 179 1275 b 417 1078 203 1135 271 1078 b 654 1275 561 1078 629 1135 l 553 1275 b 417 1167 532 1197 493 1167 b 281 1275 340 1167 301 1197 z m 271 343 l 413 843 l 424 843 l 565 343 z "},"Â":{"ha":833,"x_min":0,"x_max":0,"o":"m 57 0 l 175 0 l 243 239 l 592 239 l 661 0 l 779 0 l 508 944 l 328 944 z m 157 1050 l 279 1050 l 404 1203 l 428 1203 l 553 1050 l 675 1050 l 469 1301 l 363 1301 z m 271 343 l 413 843 l 424 843 l 565 343 z "},"Ä":{"ha":833,"x_min":0,"x_max":0,"o":"m 57 0 l 175 0 l 243 239 l 592 239 l 661 0 l 779 0 l 508 944 l 328 944 z m 203 1093 l 350 1093 l 350 1243 l 203 1243 z m 271 343 l 413 843 l 424 843 l 565 343 z m 483 1093 l 631 1093 l 631 1243 l 483 1243 z "},"À":{"ha":833,"x_min":0,"x_max":0,"o":"m 57 0 l 175 0 l 243 239 l 592 239 l 661 0 l 779 0 l 508 944 l 328 944 z m 153 1301 l 368 1056 l 507 1056 l 315 1301 z m 271 343 l 413 843 l 424 843 l 565 343 z "},"Ā":{"ha":833,"x_min":0,"x_max":0,"o":"m 57 0 l 175 0 l 243 239 l 592 239 l 661 0 l 779 0 l 508 944 l 328 944 z m 206 1136 l 626 1136 l 626 1228 l 206 1228 z m 271 343 l 413 843 l 424 843 l 565 343 z "},"Ą":{"ha":833,"x_min":0,"x_max":0,"o":"m 676 -242 b 757 -231 700 -242 718 -239 l 757 -162 b 703 -171 738 -169 725 -171 b 636 -106 643 -171 628 -156 b 724 -24 642 -71 661 -51 l 776 0 l 506 944 l 325 944 l 54 0 l 172 0 l 240 239 l 589 239 l 658 0 b 547 -110 578 -39 554 -64 b 676 -242 531 -211 560 -242 z m 268 343 l 410 843 l 421 843 l 563 343 z "},"Å":{"ha":833,"x_min":0,"x_max":0,"o":"m 57 0 l 175 0 l 243 239 l 592 239 l 661 0 l 779 0 l 508 944 l 328 944 z m 271 343 l 413 843 l 424 843 l 565 343 z m 278 1176 b 414 1040 278 1079 317 1040 b 554 1176 514 1040 554 1079 b 414 1315 554 1275 514 1315 b 278 1176 317 1315 278 1275 z m 354 1176 b 414 1250 354 1231 369 1250 b 478 1176 461 1250 478 1231 b 414 1108 478 1126 461 1108 b 354 1176 369 1108 354 1126 z "},"Ã":{"ha":833,"x_min":0,"x_max":0,"o":"m 57 0 l 175 0 l 243 239 l 592 239 l 661 0 l 779 0 l 508 944 l 328 944 z m 154 1086 l 246 1086 b 289 1190 246 1182 249 1190 b 392 1121 317 1190 333 1179 b 538 1044 460 1051 479 1044 b 678 1235 663 1044 678 1067 l 588 1235 b 543 1125 588 1135 585 1125 b 444 1194 517 1125 504 1135 b 293 1272 376 1264 353 1272 b 154 1086 169 1272 154 1251 z m 271 343 l 413 843 l 424 843 l 565 343 z "},"Æ":{"ha":833,"x_min":0,"x_max":0,"o":"m 14 0 l 124 0 l 192 240 l 386 240 l 386 0 l 789 0 l 789 106 l 496 106 l 496 439 l 747 439 l 747 544 l 496 544 l 496 839 l 761 839 l 761 944 l 283 944 z m 221 342 l 357 832 l 386 832 l 386 342 z "},"B":{"ha":833,"x_min":0,"x_max":0,"o":"m 361 -11 b 733 250 649 -11 733 49 b 563 492 733 399 694 454 l 563 500 b 694 701 664 524 694 569 b 314 951 694 894 607 951 b 125 944 276 951 233 950 l 125 0 b 361 -11 217 -8 271 -11 z m 242 101 l 242 436 l 421 436 b 614 264 569 436 614 397 b 397 94 614 138 564 99 b 242 101 333 93 297 94 z m 242 539 l 242 846 b 424 843 319 849 361 849 b 578 688 543 835 578 799 b 454 539 578 576 550 543 z "},"C":{"ha":833,"x_min":0,"x_max":0,"o":"m 453 -14 b 740 222 639 -14 724 40 l 622 222 b 454 88 604 121 563 88 b 235 474 283 88 235 172 b 458 857 235 774 283 857 b 614 715 551 857 593 836 l 732 715 b 451 958 715 903 636 958 b 115 471 190 958 115 847 b 453 -14 115 96 190 -14 z "},"Ć":{"ha":833,"x_min":0,"x_max":0,"o":"m 453 -14 b 740 222 639 -14 724 40 l 622 222 b 454 88 604 121 563 88 b 235 474 283 88 235 172 b 458 857 235 774 283 857 b 614 715 551 857 593 836 l 732 715 b 451 958 715 903 636 958 b 115 471 190 958 115 847 b 453 -14 115 96 190 -14 z m 278 1057 l 417 1057 l 632 1303 l 469 1303 z "},"Č":{"ha":833,"x_min":0,"x_max":0,"o":"m 453 -14 b 740 222 639 -14 724 40 l 622 222 b 454 88 604 121 563 88 b 235 474 283 88 235 172 b 458 857 235 774 283 857 b 614 715 551 857 593 836 l 732 715 b 451 958 715 903 636 958 b 115 471 190 958 115 847 b 453 -14 115 96 190 -14 z m 165 1303 l 371 1051 l 478 1051 l 683 1303 l 561 1303 l 436 1150 l 413 1150 l 288 1303 z "},"Ç":{"ha":833,"x_min":0,"x_max":0,"o":"m 404 -324 b 564 -199 528 -324 564 -296 b 400 -89 564 -114 535 -90 l 465 -14 b 740 222 643 -11 724 44 l 622 222 b 454 88 604 121 563 88 b 235 474 283 88 235 172 b 458 857 235 774 283 857 b 614 715 551 857 593 836 l 732 715 b 451 958 715 903 636 958 b 115 471 190 958 115 847 b 375 -10 115 136 175 13 l 326 -94 l 326 -154 l 376 -154 b 476 -201 453 -154 476 -164 b 396 -253 476 -240 457 -253 b 318 -244 357 -253 339 -250 l 318 -312 b 404 -324 350 -321 369 -324 z "},"Ċ":{"ha":833,"x_min":0,"x_max":0,"o":"m 453 -14 b 740 222 639 -14 724 40 l 622 222 b 454 88 604 121 563 88 b 235 474 283 88 235 172 b 458 857 235 774 283 857 b 614 715 551 857 593 836 l 732 715 b 451 958 715 903 636 958 b 115 471 190 958 115 847 b 453 -14 115 96 190 -14 z m 351 1094 l 499 1094 l 499 1244 l 351 1244 z "},"D":{"ha":833,"x_min":0,"x_max":0,"o":"m 307 -11 b 738 458 643 -14 738 89 b 378 943 738 807 653 914 b 115 944 282 953 192 951 l 115 0 b 307 -11 185 -7 228 -10 z m 235 99 l 235 844 b 376 838 275 846 325 844 b 618 474 567 813 618 736 b 396 96 618 188 557 110 b 235 99 344 92 313 93 z "},"Ð":{"ha":833,"x_min":0,"x_max":0,"o":"m 32 435 l 113 435 l 113 0 b 304 -11 182 -7 225 -10 b 735 458 640 -14 735 89 b 375 943 735 807 650 914 b 113 944 279 953 189 951 l 113 540 l 32 540 z m 232 99 l 232 435 l 407 435 l 407 540 l 232 540 l 232 844 b 374 838 272 846 322 844 b 615 474 564 813 615 736 b 393 96 615 188 554 110 b 232 99 342 92 310 93 z "},"Ď":{"ha":833,"x_min":0,"x_max":0,"o":"m 307 -11 b 738 458 643 -14 738 89 b 378 943 738 807 653 914 b 115 944 282 953 192 951 l 115 0 b 307 -11 185 -7 228 -10 z m 140 1301 l 346 1050 l 453 1050 l 658 1301 l 536 1301 l 411 1149 l 388 1149 l 263 1301 z m 235 99 l 235 844 b 376 838 275 846 325 844 b 618 474 567 813 618 736 b 396 96 618 188 557 110 b 235 99 344 92 313 93 z "},"Đ":{"ha":833,"x_min":0,"x_max":0,"o":"m 32 435 l 113 435 l 113 0 b 304 -11 182 -7 225 -10 b 735 458 640 -14 735 89 b 375 943 735 807 650 914 b 113 944 279 953 189 951 l 113 540 l 32 540 z m 232 99 l 232 435 l 407 435 l 407 540 l 232 540 l 232 844 b 374 838 272 846 322 844 b 615 474 564 813 615 736 b 393 96 615 188 554 110 b 232 99 342 92 310 93 z "},"E":{"ha":833,"x_min":0,"x_max":0,"o":"m 158 0 l 710 0 l 710 108 l 278 108 l 278 438 l 629 438 l 629 546 l 278 546 l 278 836 l 682 836 l 682 944 l 158 944 z "},"É":{"ha":833,"x_min":0,"x_max":0,"o":"m 158 0 l 710 0 l 710 108 l 278 108 l 278 438 l 629 438 l 629 546 l 278 546 l 278 836 l 682 836 l 682 944 l 158 944 z m 261 1056 l 400 1056 l 615 1301 l 453 1301 z "},"Ě":{"ha":833,"x_min":0,"x_max":0,"o":"m 158 0 l 710 0 l 710 108 l 278 108 l 278 438 l 629 438 l 629 546 l 278 546 l 278 836 l 682 836 l 682 944 l 158 944 z m 149 1301 l 354 1050 l 461 1050 l 667 1301 l 544 1301 l 419 1149 l 396 1149 l 271 1301 z "},"Ê":{"ha":833,"x_min":0,"x_max":0,"o":"m 158 0 l 710 0 l 710 108 l 278 108 l 278 438 l 629 438 l 629 546 l 278 546 l 278 836 l 682 836 l 682 944 l 158 944 z m 149 1050 l 271 1050 l 396 1203 l 419 1203 l 544 1050 l 667 1050 l 461 1301 l 354 1301 z "},"Ë":{"ha":833,"x_min":0,"x_max":0,"o":"m 158 0 l 710 0 l 710 108 l 278 108 l 278 438 l 629 438 l 629 546 l 278 546 l 278 836 l 682 836 l 682 944 l 158 944 z m 194 1093 l 342 1093 l 342 1243 l 194 1243 z m 475 1093 l 622 1093 l 622 1243 l 475 1243 z "},"Ė":{"ha":833,"x_min":0,"x_max":0,"o":"m 158 0 l 710 0 l 710 108 l 278 108 l 278 438 l 629 438 l 629 546 l 278 546 l 278 836 l 682 836 l 682 944 l 158 944 z m 335 1093 l 482 1093 l 482 1243 l 335 1243 z "},"È":{"ha":833,"x_min":0,"x_max":0,"o":"m 158 0 l 710 0 l 710 108 l 278 108 l 278 438 l 629 438 l 629 546 l 278 546 l 278 836 l 682 836 l 682 944 l 158 944 z m 144 1301 l 360 1056 l 499 1056 l 307 1301 z "},"Ē":{"ha":833,"x_min":0,"x_max":0,"o":"m 158 0 l 710 0 l 710 108 l 278 108 l 278 438 l 629 438 l 629 546 l 278 546 l 278 836 l 682 836 l 682 944 l 158 944 z m 197 1136 l 618 1136 l 618 1228 l 197 1228 z "},"Ę":{"ha":833,"x_min":0,"x_max":0,"o":"m 608 -242 b 689 -231 632 -242 650 -239 l 689 -162 b 635 -171 669 -169 657 -171 b 568 -106 575 -171 560 -156 b 656 -24 574 -71 593 -51 l 708 0 l 710 0 l 710 108 l 278 108 l 278 438 l 629 438 l 629 546 l 278 546 l 278 836 l 682 836 l 682 944 l 158 944 l 158 0 l 592 0 b 479 -110 511 -39 486 -64 b 608 -242 463 -211 492 -242 z "},"Ə":{"ha":833,"x_min":0,"x_max":0,"o":"m 418 -14 b 746 475 675 -14 746 90 b 410 958 746 858 675 958 b 106 699 208 958 138 903 l 232 699 b 414 849 257 817 299 849 b 628 522 578 849 621 779 l 89 522 b 418 -14 75 101 146 -14 z m 201 418 l 626 418 b 411 96 614 163 571 96 b 201 418 247 96 201 165 z "},"F":{"ha":833,"x_min":0,"x_max":0,"o":"m 156 0 l 275 0 l 275 418 l 667 418 l 667 528 l 275 528 l 275 835 l 721 835 l 721 944 l 156 944 z "},"G":{"ha":833,"x_min":0,"x_max":0,"o":"m 457 -14 b 732 53 565 -14 628 1 l 732 507 l 433 507 l 433 397 l 621 397 l 621 131 b 457 96 565 104 528 96 b 218 476 272 96 218 183 b 446 849 218 764 269 849 b 618 724 565 849 606 819 l 733 724 b 444 958 718 904 651 958 b 99 478 178 958 99 849 b 457 -14 99 99 181 -14 z "},"Ğ":{"ha":833,"x_min":0,"x_max":0,"o":"m 457 -14 b 732 53 565 -14 628 1 l 732 507 l 433 507 l 433 397 l 621 397 l 621 131 b 457 96 565 104 528 96 b 218 476 272 96 218 183 b 446 849 218 764 269 849 b 618 724 565 849 606 819 l 733 724 b 444 958 718 904 651 958 b 99 478 178 958 99 849 b 457 -14 99 99 181 -14 z m 163 1276 b 400 1079 186 1136 254 1079 b 638 1276 544 1079 613 1136 l 536 1276 b 400 1168 515 1199 476 1168 b 264 1276 324 1168 285 1199 z "},"Ģ":{"ha":833,"x_min":0,"x_max":0,"o":"m 308 -361 l 407 -361 l 518 -101 l 393 -101 z m 99 478 b 457 -14 99 99 181 -14 b 732 53 565 -14 628 1 l 732 507 l 433 507 l 433 397 l 621 397 l 621 131 b 457 96 565 104 528 96 b 218 476 272 96 218 183 b 446 849 218 764 269 849 b 618 724 565 849 606 819 l 733 724 b 444 958 718 904 651 958 b 99 478 178 958 99 849 z "},"Ġ":{"ha":833,"x_min":0,"x_max":0,"o":"m 457 -14 b 732 53 565 -14 628 1 l 732 507 l 433 507 l 433 397 l 621 397 l 621 131 b 457 96 565 104 528 96 b 218 476 272 96 218 183 b 446 849 218 764 269 849 b 618 724 565 849 606 819 l 733 724 b 444 958 718 904 651 958 b 99 478 178 958 99 849 b 457 -14 99 99 181 -14 z m 326 1094 l 474 1094 l 474 1244 l 326 1244 z "},"H":{"ha":833,"x_min":0,"x_max":0,"o":"m 108 0 l 228 0 l 228 438 l 606 438 l 606 0 l 725 0 l 725 944 l 606 944 l 606 547 l 228 547 l 228 944 l 108 944 z "},"Ħ":{"ha":833,"x_min":0,"x_max":0,"o":"m 33 738 l 125 738 l 125 0 l 238 0 l 238 438 l 594 438 l 594 0 l 708 0 l 708 738 l 800 738 l 800 829 l 708 829 l 708 944 l 594 944 l 594 829 l 238 829 l 238 944 l 125 944 l 125 829 l 33 829 z m 238 547 l 238 738 l 594 738 l 594 547 z "},"I":{"ha":833,"x_min":0,"x_max":0,"o":"m 179 0 l 653 0 l 653 110 l 476 110 l 476 835 l 644 835 l 644 944 l 189 944 l 189 835 l 357 835 l 357 110 l 179 110 z "},"Ĳ":{"ha":833,"x_min":0,"x_max":0,"o":"m 513 -12 b 746 272 693 -12 746 53 l 746 944 l 628 944 l 628 278 b 508 93 628 135 600 93 b 392 194 424 93 397 117 l 272 194 b 513 -12 272 35 328 -12 z m 86 0 l 201 0 l 201 944 l 86 944 z "},"Í":{"ha":833,"x_min":0,"x_max":0,"o":"m 179 0 l 653 0 l 653 110 l 476 110 l 476 835 l 644 835 l 644 944 l 189 944 l 189 835 l 357 835 l 357 110 l 179 110 z m 253 1056 l 392 1056 l 607 1301 l 444 1301 z "},"Î":{"ha":833,"x_min":0,"x_max":0,"o":"m 179 0 l 653 0 l 653 110 l 476 110 l 476 835 l 644 835 l 644 944 l 189 944 l 189 835 l 357 835 l 357 110 l 179 110 z m 140 1050 l 263 1050 l 388 1203 l 411 1203 l 536 1050 l 658 1050 l 453 1301 l 346 1301 z "},"Ï":{"ha":833,"x_min":0,"x_max":0,"o":"m 179 0 l 653 0 l 653 110 l 476 110 l 476 835 l 644 835 l 644 944 l 189 944 l 189 835 l 357 835 l 357 110 l 179 110 z m 186 1093 l 333 1093 l 333 1243 l 186 1243 z m 467 1093 l 614 1093 l 614 1243 l 467 1243 z "},"İ":{"ha":833,"x_min":0,"x_max":0,"o":"m 179 0 l 653 0 l 653 110 l 476 110 l 476 835 l 644 835 l 644 944 l 189 944 l 189 835 l 357 835 l 357 110 l 179 110 z m 326 1093 l 474 1093 l 474 1243 l 326 1243 z "},"Ì":{"ha":833,"x_min":0,"x_max":0,"o":"m 179 0 l 653 0 l 653 110 l 476 110 l 476 835 l 644 835 l 644 944 l 189 944 l 189 835 l 357 835 l 357 110 l 179 110 z m 136 1301 l 351 1056 l 490 1056 l 299 1301 z "},"Ī":{"ha":833,"x_min":0,"x_max":0,"o":"m 179 0 l 653 0 l 653 110 l 476 110 l 476 835 l 644 835 l 644 944 l 189 944 l 189 835 l 357 835 l 357 110 l 179 110 z m 189 1136 l 610 1136 l 610 1228 l 189 1228 z "},"Į":{"ha":833,"x_min":0,"x_max":0,"o":"m 553 -242 b 633 -231 576 -242 594 -239 l 633 -162 b 579 -171 614 -169 601 -171 b 513 -106 519 -171 504 -156 b 600 -24 518 -71 538 -51 l 653 0 l 653 110 l 476 110 l 476 835 l 644 835 l 644 944 l 189 944 l 189 835 l 357 835 l 357 110 l 179 110 l 179 0 l 536 0 b 424 -110 456 -39 431 -64 b 553 -242 407 -211 436 -242 z "},"J":{"ha":833,"x_min":0,"x_max":0,"o":"m 386 -12 b 667 269 600 -12 667 51 l 667 944 l 547 944 l 547 275 b 382 97 547 135 508 97 b 232 249 271 97 235 129 l 113 249 b 386 -12 113 47 175 -12 z "},"K":{"ha":833,"x_min":0,"x_max":0,"o":"m 121 0 l 240 0 l 240 463 l 621 0 l 775 0 l 367 481 l 367 485 l 715 944 l 576 944 l 240 493 l 240 944 l 121 944 z "},"Ķ":{"ha":833,"x_min":0,"x_max":0,"o":"m 308 -361 l 407 -361 l 518 -101 l 393 -101 z m 121 0 l 240 0 l 240 463 l 621 0 l 775 0 l 367 481 l 367 485 l 715 944 l 576 944 l 240 493 l 240 944 l 121 944 z "},"L":{"ha":833,"x_min":0,"x_max":0,"o":"m 161 1 l 739 1 l 739 111 l 281 111 l 281 944 l 161 944 z "},"Ĺ":{"ha":833,"x_min":0,"x_max":0,"o":"m 161 1 l 739 1 l 739 111 l 281 111 l 281 944 l 161 944 z m 131 1056 l 269 1056 l 485 1301 l 322 1301 z "},"Ľ":{"ha":833,"x_min":0,"x_max":0,"o":"m 161 1 l 739 1 l 739 111 l 281 111 l 281 944 l 161 944 z m 422 524 l 518 524 l 588 783 l 465 783 z "},"Ļ":{"ha":833,"x_min":0,"x_max":0,"o":"m 308 -361 l 407 -361 l 518 -101 l 393 -101 z m 161 1 l 739 1 l 739 111 l 281 111 l 281 944 l 161 944 z "},"Ł":{"ha":833,"x_min":0,"x_max":0,"o":"m 13 392 l 217 496 l 217 1 l 794 1 l 794 111 l 336 111 l 336 557 l 503 642 l 503 753 l 336 668 l 336 944 l 217 944 l 217 607 l 13 503 z "},"M":{"ha":833,"x_min":0,"x_max":0,"o":"m 79 0 l 193 0 l 193 589 l 179 794 l 186 794 l 360 335 l 472 335 l 646 794 l 653 794 l 639 589 l 639 0 l 753 0 l 753 944 l 594 944 l 424 469 l 408 469 l 238 944 l 79 944 z "},"N":{"ha":833,"x_min":0,"x_max":0,"o":"m 101 0 l 218 0 l 218 589 l 200 781 l 207 781 l 589 0 l 731 0 l 731 944 l 614 944 l 614 356 l 632 164 l 625 164 l 242 944 l 101 944 z "},"Ń":{"ha":833,"x_min":0,"x_max":0,"o":"m 101 0 l 218 0 l 218 589 l 200 781 l 207 781 l 589 0 l 731 0 l 731 944 l 614 944 l 614 356 l 632 164 l 625 164 l 242 944 l 101 944 z m 253 1056 l 392 1056 l 607 1301 l 444 1301 z "},"Ň":{"ha":833,"x_min":0,"x_max":0,"o":"m 101 0 l 218 0 l 218 589 l 200 781 l 207 781 l 589 0 l 731 0 l 731 944 l 614 944 l 614 356 l 632 164 l 625 164 l 242 944 l 101 944 z m 140 1301 l 346 1050 l 453 1050 l 658 1301 l 536 1301 l 411 1149 l 388 1149 l 263 1301 z "},"Ņ":{"ha":833,"x_min":0,"x_max":0,"o":"m 308 -361 l 407 -361 l 518 -101 l 393 -101 z m 101 0 l 218 0 l 218 589 l 200 781 l 207 781 l 589 0 l 731 0 l 731 944 l 614 944 l 614 356 l 632 164 l 625 164 l 242 944 l 101 944 z "},"Ñ":{"ha":833,"x_min":0,"x_max":0,"o":"m 101 0 l 218 0 l 218 589 l 200 781 l 207 781 l 589 0 l 731 0 l 731 944 l 614 944 l 614 356 l 632 164 l 625 164 l 242 944 l 101 944 z m 138 1086 l 229 1086 b 272 1190 229 1182 232 1190 b 375 1121 300 1190 317 1179 b 521 1044 443 1051 463 1044 b 661 1235 646 1044 661 1067 l 571 1235 b 526 1125 571 1135 568 1125 b 428 1194 500 1125 488 1135 b 276 1272 360 1264 336 1272 b 138 1086 153 1272 138 1251 z "},"O":{"ha":833,"x_min":0,"x_max":0,"o":"m 417 -14 b 744 469 668 -14 744 99 b 417 958 744 846 668 958 b 88 469 165 958 88 847 b 417 -14 88 97 165 -14 z m 207 469 b 417 851 207 764 254 851 b 625 469 578 851 625 764 b 417 93 625 179 578 93 b 207 469 254 93 207 179 z "},"Ó":{"ha":833,"x_min":0,"x_max":0,"o":"m 417 -14 b 744 469 668 -14 744 99 b 417 958 744 846 668 958 b 88 469 165 958 88 847 b 417 -14 88 97 165 -14 z m 207 469 b 417 851 207 764 254 851 b 625 469 578 851 625 764 b 417 93 625 179 578 93 b 207 469 254 93 207 179 z m 253 1057 l 392 1057 l 607 1303 l 444 1303 z "},"Ô":{"ha":833,"x_min":0,"x_max":0,"o":"m 417 -14 b 744 469 668 -14 744 99 b 417 958 744 846 668 958 b 88 469 165 958 88 847 b 417 -14 88 97 165 -14 z m 140 1051 l 263 1051 l 388 1204 l 411 1204 l 536 1051 l 658 1051 l 453 1303 l 346 1303 z m 207 469 b 417 851 207 764 254 851 b 625 469 578 851 625 764 b 417 93 625 179 578 93 b 207 469 254 93 207 179 z "},"Ö":{"ha":833,"x_min":0,"x_max":0,"o":"m 417 -14 b 744 469 668 -14 744 99 b 417 958 744 846 668 958 b 88 469 165 958 88 847 b 417 -14 88 97 165 -14 z m 186 1094 l 333 1094 l 333 1244 l 186 1244 z m 207 469 b 417 851 207 764 254 851 b 625 469 578 851 625 764 b 417 93 625 179 578 93 b 207 469 254 93 207 179 z m 467 1094 l 614 1094 l 614 1244 l 467 1244 z "},"Ò":{"ha":833,"x_min":0,"x_max":0,"o":"m 417 -14 b 744 469 668 -14 744 99 b 417 958 744 846 668 958 b 88 469 165 958 88 847 b 417 -14 88 97 165 -14 z m 136 1303 l 351 1057 l 490 1057 l 299 1303 z m 207 469 b 417 851 207 764 254 851 b 625 469 578 851 625 764 b 417 93 625 179 578 93 b 207 469 254 93 207 179 z "},"Ő":{"ha":833,"x_min":0,"x_max":0,"o":"m 417 -14 b 744 469 668 -14 744 99 b 417 958 744 846 668 958 b 88 469 165 958 88 847 b 417 -14 88 97 165 -14 z m 169 1057 l 308 1057 l 524 1303 l 361 1303 z m 207 469 b 417 851 207 764 254 851 b 625 469 578 851 625 764 b 417 93 625 179 578 93 b 207 469 254 93 207 179 z m 475 1058 l 614 1058 l 829 1304 l 667 1304 z "},"Ō":{"ha":833,"x_min":0,"x_max":0,"o":"m 417 -14 b 744 469 668 -14 744 99 b 417 958 744 846 668 958 b 88 469 165 958 88 847 b 417 -14 88 97 165 -14 z m 189 1138 l 610 1138 l 610 1229 l 189 1229 z m 207 469 b 417 851 207 764 254 851 b 625 469 578 851 625 764 b 417 93 625 179 578 93 b 207 469 254 93 207 179 z "},"Ø":{"ha":833,"x_min":0,"x_max":0,"o":"m 89 24 l 150 96 b 414 -14 200 15 283 -14 b 742 469 665 -14 742 99 b 711 768 742 597 733 696 l 800 875 l 735 932 l 671 856 b 414 958 621 931 539 958 b 85 469 163 958 85 847 b 111 188 85 350 93 258 l 22 81 z m 204 469 b 414 851 204 764 251 851 b 586 754 501 851 556 825 l 211 307 b 204 469 207 353 204 406 z m 236 199 l 613 651 b 622 469 619 601 622 542 b 414 93 622 179 575 93 b 236 199 321 93 265 121 z "},"Õ":{"ha":833,"x_min":0,"x_max":0,"o":"m 417 -14 b 744 469 668 -14 744 99 b 417 958 744 846 668 958 b 88 469 165 958 88 847 b 417 -14 88 97 165 -14 z m 138 1088 l 229 1088 b 272 1192 229 1183 232 1192 b 375 1122 300 1192 317 1181 b 521 1046 443 1053 463 1046 b 661 1236 646 1046 661 1068 l 571 1236 b 526 1126 571 1136 568 1126 b 428 1196 500 1126 488 1136 b 276 1274 360 1265 336 1274 b 138 1088 153 1274 138 1253 z m 207 469 b 417 851 207 764 254 851 b 625 469 578 851 625 764 b 417 93 625 179 578 93 b 207 469 254 93 207 179 z "},"Œ":{"ha":833,"x_min":0,"x_max":0,"o":"m 256 -14 b 431 89 342 -14 381 10 l 439 89 l 439 0 l 815 0 l 815 106 l 550 106 l 550 439 l 801 439 l 801 544 l 550 544 l 550 839 l 815 839 l 815 944 l 439 944 l 439 853 l 431 853 b 257 958 382 935 343 958 b 17 472 72 958 17 847 b 256 -14 17 97 71 -14 z m 136 471 b 285 853 136 765 169 853 b 439 472 404 853 439 765 b 283 92 439 179 403 92 b 136 471 169 92 136 178 z "},"P":{"ha":833,"x_min":0,"x_max":0,"o":"m 151 944 l 151 0 l 271 0 l 271 361 l 393 361 b 735 649 656 361 735 431 b 333 949 735 882 644 949 b 151 944 315 949 314 949 z m 271 471 l 271 840 l 357 840 b 617 656 560 840 617 800 b 381 471 617 514 561 471 z "},"Þ":{"ha":833,"x_min":0,"x_max":0,"o":"m 146 0 l 263 0 l 263 196 l 396 196 b 749 488 668 196 749 263 b 333 782 749 721 654 788 l 261 781 l 261 944 l 146 944 z m 263 303 l 263 674 l 357 674 b 631 494 568 674 631 633 b 382 303 631 347 574 303 z "},"Q":{"ha":833,"x_min":0,"x_max":0,"o":"m 588 -135 l 729 -135 l 608 26 b 744 469 710 85 744 218 b 417 958 744 846 668 958 b 88 469 165 958 88 847 b 417 -14 88 97 165 -14 b 510 -7 451 -14 482 -11 z m 207 469 b 417 851 207 764 254 851 b 625 469 578 851 625 764 b 539 124 625 272 603 169 l 446 256 l 333 256 l 442 94 b 417 93 433 93 425 93 b 207 469 254 93 207 179 z "},"R":{"ha":833,"x_min":0,"x_max":0,"o":"m 125 0 l 244 0 l 244 407 l 360 407 b 557 275 488 407 535 378 l 618 0 l 750 0 l 678 275 b 532 444 647 390 618 429 l 532 453 b 701 689 664 468 706 536 b 264 949 696 893 614 958 l 125 944 z m 244 517 l 244 838 b 442 838 336 844 369 846 b 585 683 557 824 585 796 b 449 518 585 561 553 521 z "},"Ŕ":{"ha":833,"x_min":0,"x_max":0,"o":"m 125 0 l 244 0 l 244 407 l 360 407 b 557 275 488 407 535 378 l 618 0 l 750 0 l 678 275 b 532 444 647 390 618 429 l 532 453 b 701 689 664 468 706 536 b 264 949 696 893 614 958 l 125 944 z m 244 517 l 244 838 b 442 838 336 844 369 846 b 585 683 557 824 585 796 b 449 518 585 561 553 521 z m 264 1057 l 403 1057 l 618 1303 l 456 1303 z "},"Ř":{"ha":833,"x_min":0,"x_max":0,"o":"m 125 0 l 244 0 l 244 407 l 360 407 b 557 275 488 407 535 378 l 618 0 l 750 0 l 678 275 b 532 444 647 390 618 429 l 532 453 b 701 689 664 468 706 536 b 264 949 696 893 614 958 l 125 944 z m 151 1303 l 357 1051 l 464 1051 l 669 1303 l 547 1303 l 422 1150 l 399 1150 l 274 1303 z m 244 517 l 244 838 b 442 838 336 844 369 846 b 585 683 557 824 585 796 b 449 518 585 561 553 521 z "},"Ŗ":{"ha":833,"x_min":0,"x_max":0,"o":"m 308 -361 l 407 -361 l 518 -101 l 393 -101 z m 125 0 l 244 0 l 244 407 l 360 407 b 557 275 488 407 535 378 l 618 0 l 750 0 l 678 275 b 532 444 647 390 618 429 l 532 453 b 701 689 664 468 706 536 b 264 949 696 893 614 958 l 125 944 z m 244 517 l 244 838 b 442 838 336 844 369 846 b 585 683 557 824 585 796 b 449 518 585 561 553 521 z "},"S":{"ha":833,"x_min":0,"x_max":0,"o":"m 417 -10 b 739 232 669 -10 739 46 b 474 533 739 404 681 463 b 217 729 272 601 217 635 b 414 851 217 819 260 851 b 601 733 549 851 592 828 l 721 733 b 411 957 711 908 644 957 b 101 731 174 957 101 907 b 371 453 101 575 160 519 b 624 233 568 390 624 347 b 419 96 624 121 571 94 b 215 247 268 97 226 129 l 94 247 b 417 -10 94 46 165 -10 z "},"Ś":{"ha":833,"x_min":0,"x_max":0,"o":"m 417 -10 b 739 232 669 -10 739 46 b 474 533 739 404 681 463 b 217 729 272 601 217 635 b 414 851 217 819 260 851 b 601 733 549 851 592 828 l 721 733 b 411 957 711 908 644 957 b 101 731 174 957 101 907 b 371 453 101 575 160 519 b 624 233 568 390 624 347 b 419 96 624 121 571 94 b 215 247 268 97 226 129 l 94 247 b 417 -10 94 46 165 -10 z m 297 1060 l 436 1060 l 651 1306 l 489 1306 z "},"Š":{"ha":833,"x_min":0,"x_max":0,"o":"m 417 -10 b 739 232 669 -10 739 46 b 474 533 739 404 681 463 b 217 729 272 601 217 635 b 414 851 217 819 260 851 b 601 733 549 851 592 828 l 721 733 b 411 957 711 908 644 957 b 101 731 174 957 101 907 b 371 453 101 575 160 519 b 624 233 568 390 624 347 b 419 96 624 121 571 94 b 215 247 268 97 226 129 l 94 247 b 417 -10 94 46 165 -10 z m 185 1306 l 390 1054 l 497 1054 l 703 1306 l 581 1306 l 456 1153 l 432 1153 l 307 1306 z "},"Ş":{"ha":833,"x_min":0,"x_max":0,"o":"m 407 -324 b 567 -199 531 -324 567 -296 b 403 -89 567 -114 538 -90 l 474 -8 b 739 232 681 0 739 61 b 474 533 739 404 681 463 b 217 729 272 601 217 635 b 414 851 217 819 260 851 b 601 733 549 851 592 828 l 721 733 b 411 957 711 908 644 957 b 101 731 174 957 101 907 b 371 453 101 575 160 519 b 624 233 568 390 624 347 b 419 96 624 121 571 94 b 215 247 268 97 226 129 l 94 247 b 378 -10 94 57 158 -3 l 329 -94 l 329 -154 l 379 -154 b 479 -201 456 -154 479 -164 b 399 -253 479 -240 460 -253 b 321 -244 360 -253 342 -250 l 321 -312 b 407 -324 353 -321 372 -324 z "},"Ș":{"ha":833,"x_min":0,"x_max":0,"o":"m 339 -361 l 438 -361 l 549 -101 l 424 -101 z m 94 247 b 417 -10 94 46 165 -10 b 739 232 669 -10 739 46 b 474 533 739 404 681 463 b 217 729 272 601 217 635 b 414 851 217 819 260 851 b 601 733 549 851 592 828 l 721 733 b 411 957 711 908 644 957 b 101 731 174 957 101 907 b 371 453 101 575 160 519 b 624 233 568 390 624 347 b 419 96 624 121 571 94 b 215 247 268 97 226 129 z "},"ẞ":{"ha":833,"x_min":0,"x_max":0,"o":"m 485 -12 b 764 288 683 -12 764 79 b 472 561 764 506 675 576 l 469 567 l 728 811 l 728 944 l 92 944 l 92 0 l 211 0 l 211 842 l 603 842 l 603 836 l 339 588 l 339 457 b 647 282 569 489 647 443 b 486 93 647 158 601 93 b 294 142 431 93 368 108 l 294 21 b 485 -12 353 -3 419 -12 z "},"T":{"ha":833,"x_min":0,"x_max":0,"o":"m 356 0 l 475 0 l 475 835 l 732 835 l 732 944 l 100 944 l 100 835 l 356 835 z "},"Ť":{"ha":833,"x_min":0,"x_max":0,"o":"m 356 0 l 475 0 l 475 835 l 732 835 l 732 944 l 100 944 l 100 835 l 356 835 z m 140 1301 l 346 1050 l 453 1050 l 658 1301 l 536 1301 l 411 1149 l 388 1149 l 263 1301 z "},"Ţ":{"ha":833,"x_min":0,"x_max":0,"o":"m 378 -324 b 538 -199 501 -324 538 -296 b 374 -89 538 -114 508 -90 l 472 0 l 472 835 l 729 835 l 729 944 l 97 944 l 97 835 l 353 835 l 353 0 l 300 -94 l 300 -154 l 350 -154 b 450 -201 426 -154 450 -164 b 369 -253 450 -240 431 -253 b 292 -244 331 -253 313 -250 l 292 -312 b 378 -324 324 -321 343 -324 z "},"Ț":{"ha":833,"x_min":0,"x_max":0,"o":"m 267 -361 l 365 -361 l 476 -101 l 351 -101 z m 100 835 l 356 835 l 356 0 l 475 0 l 475 835 l 732 835 l 732 944 l 100 944 z "},"U":{"ha":833,"x_min":0,"x_max":0,"o":"m 422 -12 b 721 299 651 -12 721 58 l 721 944 l 601 944 l 601 303 b 422 97 601 143 561 97 b 231 304 275 97 231 143 l 231 944 l 111 944 l 111 297 b 422 -12 111 58 183 -12 z "},"Ú":{"ha":833,"x_min":0,"x_max":0,"o":"m 422 -12 b 721 299 651 -12 721 58 l 721 944 l 601 944 l 601 303 b 422 97 601 143 561 97 b 231 304 275 97 231 143 l 231 944 l 111 944 l 111 297 b 422 -12 111 58 183 -12 z m 253 1056 l 392 1056 l 607 1301 l 444 1301 z "},"Û":{"ha":833,"x_min":0,"x_max":0,"o":"m 422 -12 b 721 299 651 -12 721 58 l 721 944 l 601 944 l 601 303 b 422 97 601 143 561 97 b 231 304 275 97 231 143 l 231 944 l 111 944 l 111 297 b 422 -12 111 58 183 -12 z m 140 1050 l 263 1050 l 388 1203 l 411 1203 l 536 1050 l 658 1050 l 453 1301 l 346 1301 z "},"Ü":{"ha":833,"x_min":0,"x_max":0,"o":"m 422 -12 b 721 299 651 -12 721 58 l 721 944 l 601 944 l 601 303 b 422 97 601 143 561 97 b 231 304 275 97 231 143 l 231 944 l 111 944 l 111 297 b 422 -12 111 58 183 -12 z m 186 1093 l 333 1093 l 333 1243 l 186 1243 z m 467 1093 l 614 1093 l 614 1243 l 467 1243 z "},"Ù":{"ha":833,"x_min":0,"x_max":0,"o":"m 422 -12 b 721 299 651 -12 721 58 l 721 944 l 601 944 l 601 303 b 422 97 601 143 561 97 b 231 304 275 97 231 143 l 231 944 l 111 944 l 111 297 b 422 -12 111 58 183 -12 z m 136 1301 l 351 1056 l 490 1056 l 299 1301 z "},"Ű":{"ha":833,"x_min":0,"x_max":0,"o":"m 422 -12 b 721 299 651 -12 721 58 l 721 944 l 601 944 l 601 303 b 422 97 601 143 561 97 b 231 304 275 97 231 143 l 231 944 l 111 944 l 111 297 b 422 -12 111 58 183 -12 z m 169 1056 l 308 1056 l 524 1301 l 361 1301 z m 475 1057 l 614 1057 l 829 1303 l 667 1303 z "},"Ū":{"ha":833,"x_min":0,"x_max":0,"o":"m 422 -12 b 721 299 651 -12 721 58 l 721 944 l 601 944 l 601 303 b 422 97 601 143 561 97 b 231 304 275 97 231 143 l 231 944 l 111 944 l 111 297 b 422 -12 111 58 183 -12 z m 189 1136 l 610 1136 l 610 1228 l 189 1228 z "},"Ų":{"ha":833,"x_min":0,"x_max":0,"o":"m 449 -242 b 529 -231 472 -242 490 -239 l 529 -162 b 475 -171 510 -169 497 -171 b 408 -106 415 -171 400 -156 b 496 -24 414 -71 433 -51 l 542 -3 b 721 299 676 22 721 107 l 721 944 l 601 944 l 601 303 b 422 97 601 143 561 97 b 231 304 275 97 231 143 l 231 944 l 111 944 l 111 297 b 407 -12 111 64 181 -10 b 319 -110 346 -44 325 -69 b 449 -242 303 -211 332 -242 z "},"Ů":{"ha":833,"x_min":0,"x_max":0,"o":"m 422 -12 b 721 299 651 -12 721 58 l 721 944 l 601 944 l 601 303 b 422 97 601 143 561 97 b 231 304 275 97 231 143 l 231 944 l 111 944 l 111 297 b 422 -12 111 58 183 -12 z m 261 1176 b 397 1040 261 1079 300 1040 b 538 1176 497 1040 538 1079 b 397 1315 538 1275 497 1315 b 261 1176 300 1315 261 1275 z m 338 1176 b 397 1250 338 1231 353 1250 b 461 1176 444 1250 461 1231 b 397 1108 461 1126 444 1108 b 338 1176 353 1108 338 1126 z "},"V":{"ha":833,"x_min":0,"x_max":0,"o":"m 338 0 l 494 0 l 781 944 l 661 944 l 422 132 l 410 132 l 171 944 l 51 944 z "},"W":{"ha":833,"x_min":0,"x_max":0,"o":"m 150 0 l 283 0 l 414 850 l 419 850 l 550 0 l 683 0 l 808 944 l 696 944 l 614 146 l 608 146 l 599 276 l 485 944 l 347 944 l 233 276 l 225 146 l 219 146 l 136 944 l 24 944 z "},"Ẃ":{"ha":833,"x_min":0,"x_max":0,"o":"m 150 0 l 283 0 l 414 850 l 419 850 l 550 0 l 683 0 l 808 944 l 696 944 l 614 146 l 608 146 l 599 276 l 485 944 l 347 944 l 233 276 l 225 146 l 219 146 l 136 944 l 24 944 z m 272 1056 l 411 1056 l 626 1301 l 464 1301 z "},"Ŵ":{"ha":833,"x_min":0,"x_max":0,"o":"m 150 0 l 283 0 l 414 850 l 419 850 l 550 0 l 683 0 l 808 944 l 696 944 l 614 146 l 608 146 l 599 276 l 485 944 l 347 944 l 233 276 l 225 146 l 219 146 l 136 944 l 24 944 z m 160 1050 l 282 1050 l 407 1203 l 431 1203 l 556 1050 l 678 1050 l 472 1301 l 365 1301 z "},"Ẅ":{"ha":833,"x_min":0,"x_max":0,"o":"m 150 0 l 283 0 l 414 850 l 419 850 l 550 0 l 683 0 l 808 944 l 696 944 l 614 146 l 608 146 l 599 276 l 485 944 l 347 944 l 233 276 l 225 146 l 219 146 l 136 944 l 24 944 z m 206 1093 l 353 1093 l 353 1243 l 206 1243 z m 486 1093 l 633 1093 l 633 1243 l 486 1243 z "},"Ẁ":{"ha":833,"x_min":0,"x_max":0,"o":"m 150 0 l 283 0 l 414 850 l 419 850 l 550 0 l 683 0 l 808 944 l 696 944 l 614 146 l 608 146 l 599 276 l 485 944 l 347 944 l 233 276 l 225 146 l 219 146 l 136 944 l 24 944 z m 156 1301 l 371 1056 l 510 1056 l 318 1301 z "},"X":{"ha":833,"x_min":0,"x_max":0,"o":"m 65 0 l 197 0 l 415 389 l 421 389 l 635 0 l 768 0 l 482 494 l 753 947 l 618 947 l 421 596 l 413 596 l 210 947 l 82 947 l 353 494 z "},"Y":{"ha":833,"x_min":0,"x_max":0,"o":"m 356 0 l 475 0 l 475 385 l 747 947 l 619 947 l 419 511 l 413 511 l 214 947 l 85 947 l 356 385 z "},"Ý":{"ha":833,"x_min":0,"x_max":0,"o":"m 356 0 l 475 0 l 475 385 l 747 947 l 619 947 l 419 511 l 413 511 l 214 947 l 85 947 l 356 385 z m 271 1056 l 410 1056 l 625 1301 l 463 1301 z "},"Ŷ":{"ha":833,"x_min":0,"x_max":0,"o":"m 356 0 l 475 0 l 475 385 l 747 947 l 619 947 l 419 511 l 413 511 l 214 947 l 85 947 l 356 385 z m 158 1050 l 281 1050 l 406 1203 l 429 1203 l 554 1050 l 676 1050 l 471 1301 l 364 1301 z "},"Ÿ":{"ha":833,"x_min":0,"x_max":0,"o":"m 356 0 l 475 0 l 475 385 l 747 947 l 619 947 l 419 511 l 413 511 l 214 947 l 85 947 l 356 385 z m 204 1093 l 351 1093 l 351 1243 l 204 1243 z m 485 1093 l 632 1093 l 632 1243 l 485 1243 z "},"Ỳ":{"ha":833,"x_min":0,"x_max":0,"o":"m 356 0 l 475 0 l 475 385 l 747 947 l 619 947 l 419 511 l 413 511 l 214 947 l 85 947 l 356 385 z m 154 1301 l 369 1056 l 508 1056 l 317 1301 z "},"Z":{"ha":833,"x_min":0,"x_max":0,"o":"m 111 0 l 721 0 l 721 110 l 246 110 l 721 849 l 721 944 l 135 944 l 135 835 l 583 835 l 111 96 z "},"Ź":{"ha":833,"x_min":0,"x_max":0,"o":"m 111 0 l 721 0 l 721 110 l 246 110 l 721 849 l 721 944 l 135 944 l 135 835 l 583 835 l 111 96 z m 276 1056 l 415 1056 l 631 1301 l 468 1301 z "},"Ž":{"ha":833,"x_min":0,"x_max":0,"o":"m 111 0 l 721 0 l 721 110 l 246 110 l 721 849 l 721 944 l 135 944 l 135 835 l 583 835 l 111 96 z m 164 1301 l 369 1050 l 476 1050 l 682 1301 l 560 1301 l 435 1149 l 411 1149 l 286 1301 z "},"Ż":{"ha":833,"x_min":0,"x_max":0,"o":"m 111 0 l 721 0 l 721 110 l 246 110 l 721 849 l 721 944 l 135 944 l 135 835 l 583 835 l 111 96 z m 350 1093 l 497 1093 l 497 1243 l 350 1243 z "},"a":{"ha":833,"x_min":0,"x_max":0,"o":"m 346 -14 b 568 93 469 -14 521 11 l 578 93 l 578 0 l 683 0 l 683 492 b 408 743 683 686 621 743 b 143 538 204 743 143 696 l 260 538 b 408 642 263 618 296 642 b 574 492 536 642 574 607 l 574 457 l 443 457 b 121 201 194 457 121 399 b 346 -14 121 35 172 -14 z m 238 214 b 415 357 238 322 278 356 l 572 358 b 375 90 572 151 526 90 b 238 214 269 90 238 118 z "},"á":{"ha":833,"x_min":0,"x_max":0,"o":"m 346 -14 b 568 93 469 -14 521 11 l 578 93 l 578 0 l 683 0 l 683 492 b 408 743 683 686 621 743 b 143 538 204 743 143 696 l 260 538 b 408 642 263 618 296 642 b 574 492 536 642 574 607 l 574 457 l 443 457 b 121 201 194 457 121 399 b 346 -14 121 35 172 -14 z m 238 214 b 415 357 238 322 278 356 l 572 358 b 375 90 572 151 526 90 b 238 214 269 90 238 118 z m 254 842 l 393 842 l 608 1088 l 446 1088 z "},"ă":{"ha":833,"x_min":0,"x_max":0,"o":"m 346 -14 b 568 93 469 -14 521 11 l 578 93 l 578 0 l 683 0 l 683 492 b 408 743 683 686 621 743 b 143 538 204 743 143 696 l 260 538 b 408 642 263 618 296 642 b 574 492 536 642 574 607 l 574 457 l 443 457 b 121 201 194 457 121 399 b 346 -14 121 35 172 -14 z m 164 1061 b 401 864 188 921 256 864 b 639 1061 546 864 614 921 l 538 1061 b 401 953 517 983 478 953 b 265 1061 325 953 286 983 z m 238 214 b 415 357 238 322 278 356 l 572 358 b 375 90 572 151 526 90 b 238 214 269 90 238 118 z "},"â":{"ha":833,"x_min":0,"x_max":0,"o":"m 346 -14 b 568 93 469 -14 521 11 l 578 93 l 578 0 l 683 0 l 683 492 b 408 743 683 686 621 743 b 143 538 204 743 143 696 l 260 538 b 408 642 263 618 296 642 b 574 492 536 642 574 607 l 574 457 l 443 457 b 121 201 194 457 121 399 b 346 -14 121 35 172 -14 z m 142 836 l 264 836 l 389 989 l 413 989 l 538 836 l 660 836 l 454 1088 l 347 1088 z m 238 214 b 415 357 238 322 278 356 l 572 358 b 375 90 572 151 526 90 b 238 214 269 90 238 118 z "},"ä":{"ha":833,"x_min":0,"x_max":0,"o":"m 346 -14 b 568 93 469 -14 521 11 l 578 93 l 578 0 l 683 0 l 683 492 b 408 743 683 686 621 743 b 143 538 204 743 143 696 l 260 538 b 408 642 263 618 296 642 b 574 492 536 642 574 607 l 574 457 l 443 457 b 121 201 194 457 121 399 b 346 -14 121 35 172 -14 z m 188 879 l 335 879 l 335 1029 l 188 1029 z m 238 214 b 415 357 238 322 278 356 l 572 358 b 375 90 572 151 526 90 b 238 214 269 90 238 118 z m 468 879 l 615 879 l 615 1029 l 468 1029 z "},"à":{"ha":833,"x_min":0,"x_max":0,"o":"m 346 -14 b 568 93 469 -14 521 11 l 578 93 l 578 0 l 683 0 l 683 492 b 408 743 683 686 621 743 b 143 538 204 743 143 696 l 260 538 b 408 642 263 618 296 642 b 574 492 536 642 574 607 l 574 457 l 443 457 b 121 201 194 457 121 399 b 346 -14 121 35 172 -14 z m 138 1088 l 353 842 l 492 842 l 300 1088 z m 238 214 b 415 357 238 322 278 356 l 572 358 b 375 90 572 151 526 90 b 238 214 269 90 238 118 z "},"ā":{"ha":833,"x_min":0,"x_max":0,"o":"m 346 -14 b 568 93 469 -14 521 11 l 578 93 l 578 0 l 683 0 l 683 492 b 408 743 683 686 621 743 b 143 538 204 743 143 696 l 260 538 b 408 642 263 618 296 642 b 574 492 536 642 574 607 l 574 457 l 443 457 b 121 201 194 457 121 399 b 346 -14 121 35 172 -14 z m 190 922 l 611 922 l 611 1014 l 190 1014 z m 238 214 b 415 357 238 322 278 356 l 572 358 b 375 90 572 151 526 90 b 238 214 269 90 238 118 z "},"ą":{"ha":833,"x_min":0,"x_max":0,"o":"m 581 -242 b 661 -231 604 -242 622 -239 l 661 -162 b 607 -171 642 -169 629 -171 b 540 -106 547 -171 532 -156 b 628 -24 546 -71 565 -51 l 681 0 l 681 492 b 406 743 681 686 618 743 b 140 538 201 743 140 696 l 257 538 b 406 642 260 618 293 642 b 571 492 533 642 571 607 l 571 457 l 440 457 b 118 201 192 457 118 399 b 343 -14 118 35 169 -14 b 565 93 467 -14 518 11 l 575 93 l 575 0 b 451 -110 494 -39 458 -64 b 581 -242 435 -211 464 -242 z m 235 214 b 413 357 235 322 275 356 l 569 358 b 372 90 569 151 524 90 b 235 214 267 90 235 118 z "},"å":{"ha":833,"x_min":0,"x_max":0,"o":"m 346 -14 b 568 93 469 -14 521 11 l 578 93 l 578 0 l 683 0 l 683 492 b 408 743 683 686 621 743 b 143 538 204 743 143 696 l 260 538 b 408 642 263 618 296 642 b 574 492 536 642 574 607 l 574 457 l 443 457 b 121 201 194 457 121 399 b 346 -14 121 35 172 -14 z m 238 214 b 415 357 238 322 278 356 l 572 358 b 375 90 572 151 526 90 b 238 214 269 90 238 118 z m 263 963 b 399 826 263 865 301 826 b 539 963 499 826 539 865 b 399 1101 539 1061 499 1101 b 263 963 301 1101 263 1061 z m 339 963 b 399 1036 339 1017 354 1036 b 463 963 446 1036 463 1017 b 399 894 463 913 446 894 b 339 963 354 894 339 913 z "},"ã":{"ha":833,"x_min":0,"x_max":0,"o":"m 346 -14 b 568 93 469 -14 521 11 l 578 93 l 578 0 l 683 0 l 683 492 b 408 743 683 686 621 743 b 143 538 204 743 143 696 l 260 538 b 408 642 263 618 296 642 b 574 492 536 642 574 607 l 574 457 l 443 457 b 121 201 194 457 121 399 b 346 -14 121 35 172 -14 z m 139 872 l 231 872 b 274 976 231 968 233 976 b 376 907 301 976 318 965 b 522 831 444 838 464 831 b 663 1021 647 831 663 853 l 572 1021 b 528 911 572 921 569 911 b 429 981 501 911 489 921 b 278 1058 361 1050 338 1058 b 139 872 154 1058 139 1038 z m 238 214 b 415 357 238 322 278 356 l 572 358 b 375 90 572 151 526 90 b 238 214 269 90 238 118 z "},"æ":{"ha":833,"x_min":0,"x_max":0,"o":"m 221 -14 b 421 138 353 -14 399 21 l 432 138 b 600 -14 458 21 497 -14 b 793 186 718 -14 763 32 l 686 186 b 592 86 669 106 643 86 b 468 344 504 86 476 146 l 808 344 b 590 743 813 651 765 743 b 428 615 490 743 451 714 l 418 615 b 239 743 392 714 353 743 b 49 538 93 743 49 694 l 151 538 b 254 647 153 622 176 647 b 386 440 356 647 386 600 l 296 440 b 25 196 88 440 25 385 b 221 -14 25 35 69 -14 z m 125 210 b 267 344 125 314 157 344 l 385 344 b 233 88 385 146 350 88 b 125 210 150 88 125 117 z m 468 436 b 590 643 479 596 507 643 b 704 436 672 643 699 596 z "},"b":{"ha":833,"x_min":0,"x_max":0,"o":"m 447 -14 b 738 365 671 -14 738 72 b 451 742 738 656 672 742 b 254 649 343 742 299 721 l 243 649 l 244 1011 l 129 1011 l 128 0 l 243 0 l 243 79 l 253 79 b 447 -14 307 7 350 -14 z m 240 365 b 422 638 240 575 282 638 b 619 365 574 638 619 575 b 422 90 619 153 574 90 b 240 365 282 90 240 153 z "},"c":{"ha":833,"x_min":0,"x_max":0,"o":"m 439 -14 b 711 201 636 -14 700 35 l 596 201 b 446 92 576 117 543 92 b 240 360 288 92 240 153 b 444 638 240 574 288 638 b 596 513 543 638 578 608 l 711 513 b 436 743 701 690 638 743 b 124 363 196 743 124 656 b 439 -14 124 72 196 -14 z "},"ć":{"ha":833,"x_min":0,"x_max":0,"o":"m 439 -14 b 711 201 636 -14 700 35 l 596 201 b 446 92 576 117 543 92 b 240 360 288 92 240 153 b 444 638 240 574 288 638 b 596 513 543 638 578 608 l 711 513 b 436 743 701 690 638 743 b 124 363 196 743 124 656 b 439 -14 124 72 196 -14 z m 257 842 l 396 842 l 611 1088 l 449 1088 z "},"č":{"ha":833,"x_min":0,"x_max":0,"o":"m 439 -14 b 711 201 636 -14 700 35 l 596 201 b 446 92 576 117 543 92 b 240 360 288 92 240 153 b 444 638 240 574 288 638 b 596 513 543 638 578 608 l 711 513 b 436 743 701 690 638 743 b 124 363 196 743 124 656 b 439 -14 124 72 196 -14 z m 144 1088 l 350 836 l 457 836 l 663 1088 l 540 1088 l 415 935 l 392 935 l 267 1088 z "},"ç":{"ha":833,"x_min":0,"x_max":0,"o":"m 407 -324 b 567 -199 531 -324 567 -296 b 403 -89 567 -114 538 -90 l 469 -14 b 711 201 643 -8 700 43 l 596 201 b 446 92 576 117 543 92 b 240 360 288 92 240 153 b 444 638 240 574 288 638 b 596 513 543 638 578 608 l 711 513 b 436 743 701 690 638 743 b 124 363 196 743 124 656 b 376 -11 124 99 183 4 l 329 -94 l 329 -154 l 379 -154 b 479 -201 456 -154 479 -164 b 399 -253 479 -240 460 -253 b 321 -244 360 -253 342 -250 l 321 -312 b 407 -324 353 -321 372 -324 z "},"ċ":{"ha":833,"x_min":0,"x_max":0,"o":"m 439 -14 b 711 201 636 -14 700 35 l 596 201 b 446 92 576 117 543 92 b 240 360 288 92 240 153 b 444 638 240 574 288 638 b 596 513 543 638 578 608 l 711 513 b 436 743 701 690 638 743 b 124 363 196 743 124 656 b 439 -14 124 72 196 -14 z m 331 879 l 478 879 l 478 1029 l 331 1029 z "},"d":{"ha":833,"x_min":0,"x_max":0,"o":"m 383 -14 b 578 79 481 -14 525 7 l 588 79 l 588 0 l 703 0 l 703 1011 l 588 1011 l 588 649 l 576 649 b 379 742 533 721 488 742 b 93 365 158 742 93 656 b 383 -14 93 72 160 -14 z m 211 365 b 408 638 211 575 257 638 b 590 365 549 638 590 575 b 408 90 590 153 549 90 b 211 365 257 90 211 153 z "},"ð":{"ha":833,"x_min":0,"x_max":0,"o":"m 328 690 l 426 767 b 568 558 471 708 513 646 l 561 553 b 389 621 518 608 488 621 b 101 308 150 621 101 567 b 407 -12 101 42 154 -12 b 715 314 663 -12 715 43 b 514 835 715 515 678 631 l 604 906 l 549 978 l 456 906 b 381 992 432 932 407 961 l 226 992 b 368 838 285 932 329 883 l 271 763 z m 215 310 b 404 518 215 482 247 518 b 601 314 565 518 599 483 b 407 89 604 128 571 89 b 215 310 249 89 215 126 z "},"ď":{"ha":833,"x_min":0,"x_max":0,"o":"m 299 -14 b 483 79 392 -14 433 7 l 493 79 l 493 0 l 601 0 l 601 1011 l 493 1011 l 493 649 l 482 649 b 296 742 442 721 397 742 b 24 365 86 742 24 656 b 299 -14 24 72 88 -14 z m 136 365 b 322 638 136 575 179 638 b 494 365 456 638 494 575 b 322 90 494 153 456 90 b 136 365 179 90 136 153 z m 707 793 l 778 793 l 829 1053 l 739 1053 z "},"đ":{"ha":833,"x_min":0,"x_max":0,"o":"m 436 821 l 560 821 l 560 649 l 549 649 b 351 742 506 721 460 742 b 65 365 131 742 65 656 b 356 -14 65 72 132 -14 b 550 79 453 -14 497 7 l 560 79 l 560 0 l 675 0 l 675 821 l 801 821 l 801 913 l 675 913 l 675 1011 l 560 1011 l 560 913 l 436 913 z m 183 365 b 381 638 183 575 229 638 b 563 365 521 638 563 575 b 381 90 563 153 521 90 b 183 365 229 90 183 153 z "},"e":{"ha":833,"x_min":0,"x_max":0,"o":"m 426 -14 b 697 188 608 -14 667 29 l 576 188 b 425 89 551 110 518 89 b 232 317 282 89 240 138 l 711 317 b 415 742 715 650 661 742 b 115 367 190 742 115 661 b 426 -14 115 68 182 -14 z m 233 418 b 415 639 246 592 285 639 b 600 418 554 639 594 592 z "},"é":{"ha":833,"x_min":0,"x_max":0,"o":"m 426 -14 b 697 188 608 -14 667 29 l 576 188 b 425 89 551 110 518 89 b 232 317 282 89 240 138 l 711 317 b 415 742 715 650 661 742 b 115 367 190 742 115 661 b 426 -14 115 68 182 -14 z m 233 418 b 415 639 246 592 285 639 b 600 418 554 639 594 592 z m 257 842 l 396 842 l 611 1088 l 449 1088 z "},"ě":{"ha":833,"x_min":0,"x_max":0,"o":"m 426 -14 b 697 188 608 -14 667 29 l 576 188 b 425 89 551 110 518 89 b 232 317 282 89 240 138 l 711 317 b 415 742 715 650 661 742 b 115 367 190 742 115 661 b 426 -14 115 68 182 -14 z m 144 1088 l 350 836 l 457 836 l 663 1088 l 540 1088 l 415 935 l 392 935 l 267 1088 z m 233 418 b 415 639 246 592 285 639 b 600 418 554 639 594 592 z "},"ê":{"ha":833,"x_min":0,"x_max":0,"o":"m 426 -14 b 697 188 608 -14 667 29 l 576 188 b 425 89 551 110 518 89 b 232 317 282 89 240 138 l 711 317 b 415 742 715 650 661 742 b 115 367 190 742 115 661 b 426 -14 115 68 182 -14 z m 144 836 l 267 836 l 392 989 l 415 989 l 540 836 l 663 836 l 457 1088 l 350 1088 z m 233 418 b 415 639 246 592 285 639 b 600 418 554 639 594 592 z "},"ë":{"ha":833,"x_min":0,"x_max":0,"o":"m 426 -14 b 697 188 608 -14 667 29 l 576 188 b 425 89 551 110 518 89 b 232 317 282 89 240 138 l 711 317 b 415 742 715 650 661 742 b 115 367 190 742 115 661 b 426 -14 115 68 182 -14 z m 190 879 l 338 879 l 338 1029 l 190 1029 z m 233 418 b 415 639 246 592 285 639 b 600 418 554 639 594 592 z m 471 879 l 618 879 l 618 1029 l 471 1029 z "},"ė":{"ha":833,"x_min":0,"x_max":0,"o":"m 426 -14 b 697 188 608 -14 667 29 l 576 188 b 425 89 551 110 518 89 b 232 317 282 89 240 138 l 711 317 b 415 742 715 650 661 742 b 115 367 190 742 115 661 b 426 -14 115 68 182 -14 z m 233 418 b 415 639 246 592 285 639 b 600 418 554 639 594 592 z m 331 879 l 478 879 l 478 1029 l 331 1029 z "},"è":{"ha":833,"x_min":0,"x_max":0,"o":"m 426 -14 b 697 188 608 -14 667 29 l 576 188 b 425 89 551 110 518 89 b 232 317 282 89 240 138 l 711 317 b 415 742 715 650 661 742 b 115 367 190 742 115 661 b 426 -14 115 68 182 -14 z m 140 1088 l 356 842 l 494 842 l 303 1088 z m 233 418 b 415 639 246 592 285 639 b 600 418 554 639 594 592 z "},"ē":{"ha":833,"x_min":0,"x_max":0,"o":"m 426 -14 b 697 188 608 -14 667 29 l 576 188 b 425 89 551 110 518 89 b 232 317 282 89 240 138 l 711 317 b 415 742 715 650 661 742 b 115 367 190 742 115 661 b 426 -14 115 68 182 -14 z m 193 922 l 614 922 l 614 1014 l 193 1014 z m 233 418 b 415 639 246 592 285 639 b 600 418 554 639 594 592 z "},"ę":{"ha":833,"x_min":0,"x_max":0,"o":"m 490 -228 b 571 -217 514 -228 532 -225 l 571 -149 b 517 -157 551 -156 539 -157 b 450 -92 457 -157 442 -142 b 538 -10 456 -57 475 -37 l 557 -1 b 697 188 640 21 675 76 l 576 188 b 425 89 551 110 518 89 b 232 317 282 89 240 138 l 711 317 b 415 742 715 650 661 742 b 115 367 190 742 115 661 b 422 -14 115 69 181 -12 b 361 -96 382 -39 367 -61 b 490 -228 344 -197 374 -228 z m 233 418 b 415 639 246 592 285 639 b 600 418 554 639 594 592 z "},"ə":{"ha":833,"x_min":0,"x_max":0,"o":"m 407 739 b 136 538 225 739 167 696 l 257 538 b 408 636 282 615 315 636 b 601 408 551 636 593 588 l 122 408 b 418 -17 118 75 172 -17 b 718 358 643 -17 718 64 b 407 739 718 657 651 739 z m 233 307 l 600 307 b 418 86 588 133 549 86 b 233 307 279 86 239 133 z "},"f":{"ha":833,"x_min":0,"x_max":0,"o":"m 322 0 l 435 0 l 435 615 l 686 615 l 686 725 l 435 725 l 435 819 b 700 936 435 918 492 944 l 700 1039 b 322 825 404 1053 322 1007 l 322 725 l 108 725 l 142 615 l 322 615 z "},"g":{"ha":833,"x_min":0,"x_max":0,"o":"m 407 -299 b 701 -18 632 -299 700 -235 l 701 725 l 592 725 l 592 635 l 581 635 b 390 743 551 721 504 743 b 93 364 161 743 93 657 b 389 -4 93 81 161 -4 b 578 106 508 -4 550 22 l 588 106 l 588 -3 b 408 -200 586 -156 544 -200 b 236 -86 278 -200 238 -174 l 119 -86 b 407 -299 131 -250 196 -299 z m 210 364 b 399 640 210 578 253 640 b 588 364 544 640 588 578 b 399 99 588 160 544 99 b 210 364 253 99 210 160 z "},"ğ":{"ha":833,"x_min":0,"x_max":0,"o":"m 407 -299 b 701 -18 632 -299 700 -235 l 701 725 l 592 725 l 592 635 l 581 635 b 390 743 551 721 504 743 b 93 364 161 743 93 657 b 389 -4 93 81 161 -4 b 578 106 508 -4 550 22 l 588 106 l 588 -3 b 408 -200 586 -156 544 -200 b 236 -86 278 -200 238 -174 l 119 -86 b 407 -299 131 -250 196 -299 z m 156 1061 b 393 864 179 921 247 864 b 631 1061 538 864 606 921 l 529 1061 b 393 953 508 983 469 953 b 257 1061 317 953 278 983 z m 210 364 b 399 640 210 578 253 640 b 588 364 544 640 588 578 b 399 99 588 160 544 99 b 210 364 253 99 210 160 z "},"ģ":{"ha":833,"x_min":0,"x_max":0,"o":"m 407 -299 b 701 -18 632 -299 700 -235 l 701 725 l 592 725 l 592 635 l 581 635 b 390 743 551 721 504 743 b 93 364 161 743 93 657 b 389 -4 93 81 161 -4 b 578 106 508 -4 550 22 l 588 106 l 588 -3 b 408 -200 586 -156 544 -200 b 236 -86 278 -200 238 -174 l 119 -86 b 407 -299 131 -250 196 -299 z m 210 364 b 399 640 210 578 253 640 b 588 364 544 640 588 578 b 399 99 588 160 544 99 b 210 364 253 99 210 160 z m 288 847 l 413 847 l 497 1107 l 399 1107 z "},"ġ":{"ha":833,"x_min":0,"x_max":0,"o":"m 407 -299 b 701 -18 632 -299 700 -235 l 701 725 l 592 725 l 592 635 l 581 635 b 390 743 551 721 504 743 b 93 364 161 743 93 657 b 389 -4 93 81 161 -4 b 578 106 508 -4 550 22 l 588 106 l 588 -3 b 408 -200 586 -156 544 -200 b 236 -86 278 -200 238 -174 l 119 -86 b 407 -299 131 -250 196 -299 z m 210 364 b 399 640 210 578 253 640 b 588 364 544 640 588 578 b 399 99 588 160 544 99 b 210 364 253 99 210 160 z m 319 879 l 467 879 l 467 1029 l 319 1029 z "},"h":{"ha":833,"x_min":0,"x_max":0,"o":"m 126 0 l 243 0 l 243 376 b 433 638 243 578 288 638 b 590 468 553 638 590 599 l 590 0 l 706 0 l 706 465 b 469 742 706 679 651 742 b 253 618 343 742 294 714 l 243 618 l 243 1011 l 126 1011 z "},"ħ":{"ha":833,"x_min":0,"x_max":0,"o":"m 19 826 l 140 826 l 140 0 l 257 0 l 257 376 b 447 638 257 578 301 638 b 604 468 567 638 604 599 l 604 0 l 719 0 l 719 465 b 483 742 719 679 665 742 b 267 618 357 742 308 714 l 257 618 l 257 826 l 385 826 l 385 926 l 257 926 l 257 1011 l 140 1011 l 140 926 l 19 926 z "},"i":{"ha":833,"x_min":0,"x_max":0,"o":"m 347 853 l 507 853 l 507 1011 l 347 1011 z m 157 1 l 731 1 l 731 103 l 506 103 l 506 725 l 171 725 l 171 624 l 392 624 l 392 103 l 157 103 z "},"ı":{"ha":833,"x_min":0,"x_max":0,"o":"m 160 1 l 733 1 l 733 103 l 508 103 l 508 725 l 174 725 l 174 624 l 394 624 l 394 103 l 160 103 z "},"í":{"ha":833,"x_min":0,"x_max":0,"o":"m 160 1 l 733 1 l 733 103 l 508 103 l 508 725 l 174 725 l 174 624 l 394 624 l 394 103 l 160 103 z m 276 838 l 415 838 l 631 1083 l 468 1083 z "},"î":{"ha":833,"x_min":0,"x_max":0,"o":"m 160 1 l 733 1 l 733 103 l 508 103 l 508 725 l 174 725 l 174 624 l 394 624 l 394 103 l 160 103 z m 164 832 l 286 832 l 411 985 l 435 985 l 560 832 l 682 832 l 476 1083 l 369 1083 z "},"ï":{"ha":833,"x_min":0,"x_max":0,"o":"m 160 1 l 733 1 l 733 103 l 508 103 l 508 725 l 174 725 l 174 624 l 394 624 l 394 103 l 160 103 z m 210 875 l 357 875 l 357 1025 l 210 1025 z m 490 875 l 638 875 l 638 1025 l 490 1025 z "},"ì":{"ha":833,"x_min":0,"x_max":0,"o":"m 160 1 l 733 1 l 733 103 l 508 103 l 508 725 l 174 725 l 174 624 l 394 624 l 394 103 l 160 103 z m 160 1083 l 375 838 l 514 838 l 322 1083 z "},"ĳ":{"ha":833,"x_min":0,"x_max":0,"o":"m 171 -231 l 171 -333 b 661 -87 547 -333 661 -293 l 661 725 l 547 725 l 547 -81 b 171 -231 547 -189 439 -225 z m 144 853 l 304 853 l 304 1011 l 144 1011 z m 171 1 l 285 1 l 285 725 l 171 725 z m 519 853 l 679 853 l 679 1011 l 519 1011 z "},"ī":{"ha":833,"x_min":0,"x_max":0,"o":"m 160 1 l 733 1 l 733 103 l 508 103 l 508 725 l 174 725 l 174 624 l 394 624 l 394 103 l 160 103 z m 213 918 l 633 918 l 633 1010 l 213 1010 z "},"į":{"ha":833,"x_min":0,"x_max":0,"o":"m 439 -240 b 519 -229 463 -240 481 -237 l 519 -161 b 465 -169 500 -168 488 -169 b 399 -104 406 -169 390 -154 b 486 -22 404 -69 424 -50 l 539 1 l 733 1 l 733 103 l 508 103 l 508 725 l 174 725 l 174 624 l 394 624 l 394 103 l 160 103 l 160 1 l 422 1 b 310 -108 342 -37 317 -62 b 439 -240 293 -210 322 -240 z m 350 875 l 497 875 l 497 1025 l 350 1025 z "},"j":{"ha":833,"x_min":0,"x_max":0,"o":"m 390 853 l 550 853 l 550 1011 l 390 1011 z m 175 -306 b 543 -60 478 -278 543 -236 l 543 725 l 221 725 l 221 622 l 429 622 l 429 -53 b 175 -203 429 -143 383 -169 z "},"ȷ":{"ha":833,"x_min":0,"x_max":0,"o":"m 178 -203 l 178 -306 b 546 -60 481 -278 546 -236 l 546 725 l 224 725 l 224 622 l 432 622 l 432 -53 b 178 -203 432 -143 386 -169 z "},"k":{"ha":833,"x_min":0,"x_max":0,"o":"m 625 0 l 781 0 l 425 401 l 735 725 l 585 725 l 286 408 l 286 1011 l 172 1011 l 172 0 l 286 0 l 286 388 z "},"ķ":{"ha":833,"x_min":0,"x_max":0,"o":"m 308 -361 l 407 -361 l 518 -101 l 393 -101 z m 172 0 l 286 0 l 286 388 l 625 0 l 781 0 l 425 401 l 735 725 l 585 725 l 286 408 l 286 1011 l 172 1011 z "},"l":{"ha":833,"x_min":0,"x_max":0,"o":"m 125 0 l 715 0 l 715 103 l 485 103 l 485 1011 l 139 1011 l 139 907 l 372 907 l 372 103 l 125 103 z "},"ĺ":{"ha":833,"x_min":0,"x_max":0,"o":"m 125 0 l 715 0 l 715 103 l 485 103 l 485 1011 l 139 1011 l 139 907 l 372 907 l 372 103 l 125 103 z m 257 1153 l 396 1153 l 611 1399 l 449 1399 z "},"ľ":{"ha":833,"x_min":0,"x_max":0,"o":"m 125 0 l 715 0 l 715 103 l 485 103 l 485 1011 l 139 1011 l 139 907 l 372 907 l 372 103 l 125 103 z m 574 831 l 669 831 l 739 1090 l 617 1090 z "},"ļ":{"ha":833,"x_min":0,"x_max":0,"o":"m 278 -361 l 376 -361 l 488 -101 l 363 -101 z m 125 0 l 715 0 l 715 103 l 485 103 l 485 1011 l 139 1011 l 139 907 l 372 907 l 372 103 l 125 103 z "},"ł":{"ha":833,"x_min":0,"x_max":0,"o":"m 179 392 l 369 489 l 369 103 l 122 103 l 122 0 l 713 0 l 713 103 l 482 103 l 482 546 l 669 642 l 669 753 l 482 657 l 482 1011 l 136 1011 l 136 907 l 369 907 l 369 600 l 179 503 z "},"m":{"ha":833,"x_min":0,"x_max":0,"o":"m 64 0 l 172 0 l 172 414 b 268 636 172 583 194 636 b 365 442 336 636 367 592 l 363 0 l 471 0 l 471 422 b 567 636 471 588 493 636 b 658 443 639 636 658 589 l 658 0 l 768 0 l 768 469 b 611 742 768 676 732 742 b 465 632 536 742 499 719 l 458 632 b 314 742 438 714 396 742 b 178 632 243 742 210 717 l 168 632 l 168 725 l 64 725 z "},"n":{"ha":833,"x_min":0,"x_max":0,"o":"m 126 0 l 243 0 l 243 378 b 435 636 243 576 288 636 b 590 469 553 636 590 599 l 590 0 l 706 0 l 706 467 b 471 743 706 681 651 743 b 253 619 344 743 294 715 l 243 619 l 243 725 l 126 725 z "},"ń":{"ha":833,"x_min":0,"x_max":0,"o":"m 126 0 l 243 0 l 243 378 b 435 636 243 576 288 636 b 590 469 553 636 590 599 l 590 0 l 706 0 l 706 467 b 471 743 706 681 651 743 b 253 619 344 743 294 715 l 243 619 l 243 725 l 126 725 z m 257 842 l 396 842 l 611 1088 l 449 1088 z "},"ň":{"ha":833,"x_min":0,"x_max":0,"o":"m 126 0 l 243 0 l 243 378 b 435 636 243 576 288 636 b 590 469 553 636 590 599 l 590 0 l 706 0 l 706 467 b 471 743 706 681 651 743 b 253 619 344 743 294 715 l 243 619 l 243 725 l 126 725 z m 144 1088 l 350 836 l 457 836 l 663 1088 l 540 1088 l 415 935 l 392 935 l 267 1088 z "},"ņ":{"ha":833,"x_min":0,"x_max":0,"o":"m 308 -361 l 407 -361 l 518 -101 l 393 -101 z m 126 0 l 243 0 l 243 378 b 435 636 243 576 288 636 b 590 469 553 636 590 599 l 590 0 l 706 0 l 706 467 b 471 743 706 681 651 743 b 253 619 344 743 294 715 l 243 619 l 243 725 l 126 725 z "},"ñ":{"ha":833,"x_min":0,"x_max":0,"o":"m 126 0 l 243 0 l 243 378 b 435 636 243 576 288 636 b 590 469 553 636 590 599 l 590 0 l 706 0 l 706 467 b 471 743 706 681 651 743 b 253 619 344 743 294 715 l 243 619 l 243 725 l 126 725 z m 142 872 l 233 872 b 276 976 233 968 236 976 b 379 907 304 976 321 965 b 525 831 447 838 467 831 b 665 1021 650 831 665 853 l 575 1021 b 531 911 575 921 572 911 b 432 981 504 911 492 921 b 281 1058 364 1050 340 1058 b 142 872 157 1058 142 1038 z "},"o":{"ha":833,"x_min":0,"x_max":0,"o":"m 415 -14 b 726 364 656 -14 726 74 b 415 743 726 656 656 743 b 106 364 176 743 106 657 b 415 -14 106 72 176 -14 z m 222 364 b 415 640 222 578 267 640 b 610 364 565 640 610 578 b 415 90 610 153 565 90 b 222 364 267 90 222 153 z "},"ó":{"ha":833,"x_min":0,"x_max":0,"o":"m 415 -14 b 726 364 656 -14 726 74 b 415 743 726 656 656 743 b 106 364 176 743 106 657 b 415 -14 106 72 176 -14 z m 222 364 b 415 640 222 578 267 640 b 610 364 565 640 610 578 b 415 90 610 153 565 90 b 222 364 267 90 222 153 z m 257 842 l 396 842 l 611 1088 l 449 1088 z "},"ô":{"ha":833,"x_min":0,"x_max":0,"o":"m 415 -14 b 726 364 656 -14 726 74 b 415 743 726 656 656 743 b 106 364 176 743 106 657 b 415 -14 106 72 176 -14 z m 144 836 l 267 836 l 392 989 l 415 989 l 540 836 l 663 836 l 457 1088 l 350 1088 z m 222 364 b 415 640 222 578 267 640 b 610 364 565 640 610 578 b 415 90 610 153 565 90 b 222 364 267 90 222 153 z "},"ö":{"ha":833,"x_min":0,"x_max":0,"o":"m 415 -14 b 726 364 656 -14 726 74 b 415 743 726 656 656 743 b 106 364 176 743 106 657 b 415 -14 106 72 176 -14 z m 190 879 l 338 879 l 338 1029 l 190 1029 z m 222 364 b 415 640 222 578 267 640 b 610 364 565 640 610 578 b 415 90 610 153 565 90 b 222 364 267 90 222 153 z m 471 879 l 618 879 l 618 1029 l 471 1029 z "},"ò":{"ha":833,"x_min":0,"x_max":0,"o":"m 415 -14 b 726 364 656 -14 726 74 b 415 743 726 656 656 743 b 106 364 176 743 106 657 b 415 -14 106 72 176 -14 z m 140 1088 l 356 842 l 494 842 l 303 1088 z m 222 364 b 415 640 222 578 267 640 b 610 364 565 640 610 578 b 415 90 610 153 565 90 b 222 364 267 90 222 153 z "},"ő":{"ha":833,"x_min":0,"x_max":0,"o":"m 415 -14 b 726 364 656 -14 726 74 b 415 743 726 656 656 743 b 106 364 176 743 106 657 b 415 -14 106 72 176 -14 z m 174 842 l 313 842 l 528 1088 l 365 1088 z m 222 364 b 415 640 222 578 267 640 b 610 364 565 640 610 578 b 415 90 610 153 565 90 b 222 364 267 90 222 153 z m 479 843 l 618 843 l 833 1089 l 671 1089 z "},"ō":{"ha":833,"x_min":0,"x_max":0,"o":"m 415 -14 b 726 364 656 -14 726 74 b 415 743 726 656 656 743 b 106 364 176 743 106 657 b 415 -14 106 72 176 -14 z m 193 922 l 614 922 l 614 1014 l 193 1014 z m 222 364 b 415 640 222 578 267 640 b 610 364 565 640 610 578 b 415 90 610 153 565 90 b 222 364 267 90 222 153 z "},"ø":{"ha":833,"x_min":0,"x_max":0,"o":"m 164 -1 l 197 38 b 413 -14 244 0 314 -14 b 724 364 653 -14 724 74 b 685 621 724 479 713 561 l 738 683 l 669 738 l 631 690 b 413 743 582 728 511 743 b 103 364 174 743 103 657 b 140 110 103 250 114 168 l 94 54 z m 219 364 b 413 640 219 578 264 640 b 553 599 476 640 522 629 l 232 217 b 219 364 224 256 219 304 z m 275 131 l 594 513 b 607 364 603 474 607 425 b 413 90 607 153 563 90 b 275 131 349 90 304 101 z "},"õ":{"ha":833,"x_min":0,"x_max":0,"o":"m 415 -14 b 726 364 656 -14 726 74 b 415 743 726 656 656 743 b 106 364 176 743 106 657 b 415 -14 106 72 176 -14 z m 142 872 l 233 872 b 276 976 233 968 236 976 b 379 907 304 976 321 965 b 525 831 447 838 467 831 b 665 1021 650 831 665 853 l 575 1021 b 531 911 575 921 572 911 b 432 981 504 911 492 921 b 281 1058 364 1050 340 1058 b 142 872 157 1058 142 1038 z m 222 364 b 415 640 222 578 267 640 b 610 364 565 640 610 578 b 415 90 610 153 565 90 b 222 364 267 90 222 153 z "},"œ":{"ha":833,"x_min":0,"x_max":0,"o":"m 242 -14 b 424 118 340 -14 382 17 l 436 118 b 611 -14 478 17 518 -14 b 793 186 725 -14 767 32 l 683 186 b 597 89 674 111 654 89 b 483 328 514 89 488 143 l 807 328 b 603 743 810 649 764 743 b 436 613 514 743 475 714 l 424 613 b 243 743 381 714 339 743 b 24 364 74 743 24 657 b 242 -14 24 72 74 -14 z m 129 364 b 251 640 129 578 157 640 b 378 364 349 640 378 578 b 251 90 378 153 349 90 b 129 364 157 90 129 153 z m 486 429 b 603 640 496 592 524 640 b 710 429 681 640 706 592 z "},"p":{"ha":833,"x_min":0,"x_max":0,"o":"m 126 -299 l 242 -299 l 242 79 l 253 79 b 449 -14 297 7 340 -14 b 736 364 671 -14 736 72 b 446 743 736 657 669 743 b 251 650 349 743 306 722 l 242 650 l 242 725 l 126 725 z m 239 364 b 421 639 239 576 281 639 b 618 364 572 639 618 576 b 421 90 618 153 572 90 b 239 364 281 90 239 153 z "},"þ":{"ha":833,"x_min":0,"x_max":0,"o":"m 124 1011 l 124 -299 l 239 -299 l 239 79 l 250 79 b 446 -14 294 7 338 -14 b 733 364 668 -14 733 72 b 443 743 733 657 667 743 b 249 650 346 743 303 722 l 239 650 l 239 1011 z m 236 364 b 418 639 236 576 278 639 b 615 364 569 639 615 576 b 418 90 615 153 569 90 b 236 364 278 90 236 153 z "},"q":{"ha":833,"x_min":0,"x_max":0,"o":"m 589 -299 l 704 -299 l 704 725 l 589 725 l 589 650 l 579 650 b 385 743 525 722 481 743 b 94 364 161 743 94 657 b 381 -14 94 72 160 -14 b 578 79 488 -14 533 7 l 589 79 z m 213 364 b 410 639 213 576 258 639 b 592 364 550 639 592 576 b 410 90 592 153 550 90 b 213 364 258 90 213 153 z "},"r":{"ha":833,"x_min":0,"x_max":0,"o":"m 232 0 l 344 0 l 344 367 b 522 615 344 488 443 601 b 689 618 558 621 613 621 l 689 728 b 551 729 653 731 601 731 b 350 554 440 726 425 728 l 339 554 l 343 725 l 232 725 z "},"ŕ":{"ha":833,"x_min":0,"x_max":0,"o":"m 232 0 l 344 0 l 344 367 b 522 615 344 488 443 601 b 689 618 558 621 613 621 l 689 728 b 551 729 653 731 601 731 b 350 554 440 726 425 728 l 339 554 l 343 725 l 232 725 z m 253 842 l 392 842 l 607 1088 l 444 1088 z "},"ř":{"ha":833,"x_min":0,"x_max":0,"o":"m 232 0 l 344 0 l 344 367 b 522 615 344 488 443 601 b 689 618 558 621 613 621 l 689 728 b 551 729 653 731 601 731 b 350 554 440 726 425 728 l 339 554 l 343 725 l 232 725 z m 140 1088 l 346 836 l 453 836 l 658 1088 l 536 1088 l 411 935 l 388 935 l 263 1088 z "},"ŗ":{"ha":833,"x_min":0,"x_max":0,"o":"m 158 -361 l 257 -361 l 368 -101 l 243 -101 z m 232 0 l 344 0 l 344 367 b 522 615 344 488 443 601 b 689 618 558 621 613 621 l 689 728 b 551 729 653 731 601 731 b 350 554 440 726 425 728 l 339 554 l 343 725 l 232 725 z "},"s":{"ha":833,"x_min":0,"x_max":0,"o":"m 418 -14 b 707 197 640 -14 707 35 b 467 421 707 321 657 374 b 244 538 294 464 244 490 b 414 640 244 617 283 640 b 576 553 528 640 567 621 l 692 553 b 415 743 683 700 621 743 b 131 539 196 743 131 696 b 382 332 131 419 189 371 b 592 194 544 299 592 268 b 418 89 592 111 551 88 b 239 206 286 90 244 117 l 121 206 b 418 -14 121 36 189 -14 z "},"ś":{"ha":833,"x_min":0,"x_max":0,"o":"m 418 -14 b 707 197 640 -14 707 35 b 467 421 707 321 657 374 b 244 538 294 464 244 490 b 414 640 244 617 283 640 b 576 553 528 640 567 621 l 692 553 b 415 743 683 700 621 743 b 131 539 196 743 131 696 b 382 332 131 419 189 371 b 592 194 544 299 592 268 b 418 89 592 111 551 88 b 239 206 286 90 244 117 l 121 206 b 418 -14 121 36 189 -14 z m 274 842 l 413 842 l 628 1088 l 465 1088 z "},"š":{"ha":833,"x_min":0,"x_max":0,"o":"m 418 -14 b 707 197 640 -14 707 35 b 467 421 707 321 657 374 b 244 538 294 464 244 490 b 414 640 244 617 283 640 b 576 553 528 640 567 621 l 692 553 b 415 743 683 700 621 743 b 131 539 196 743 131 696 b 382 332 131 419 189 371 b 592 194 544 299 592 268 b 418 89 592 111 551 88 b 239 206 286 90 244 117 l 121 206 b 418 -14 121 36 189 -14 z m 161 1088 l 367 836 l 474 836 l 679 1088 l 557 1088 l 432 935 l 408 935 l 283 1088 z "},"ş":{"ha":833,"x_min":0,"x_max":0,"o":"m 393 -324 b 553 -199 517 -324 553 -296 b 389 -89 553 -114 524 -90 l 456 -14 b 707 197 647 -8 707 44 b 467 421 707 321 657 374 b 244 538 294 464 244 490 b 414 640 244 617 283 640 b 576 553 528 640 567 621 l 692 553 b 415 743 683 700 621 743 b 131 539 196 743 131 696 b 382 332 131 419 189 371 b 592 194 544 299 592 268 b 418 89 592 111 551 88 b 239 206 286 90 244 117 l 121 206 b 363 -12 121 51 178 -4 l 315 -94 l 315 -154 l 365 -154 b 465 -201 442 -154 465 -164 b 385 -253 465 -240 446 -253 b 307 -244 346 -253 328 -250 l 307 -312 b 393 -324 339 -321 358 -324 z "},"ș":{"ha":833,"x_min":0,"x_max":0,"o":"m 325 -361 l 424 -361 l 535 -101 l 410 -101 z m 121 206 b 418 -14 121 36 189 -14 b 707 197 640 -14 707 35 b 467 421 707 321 657 374 b 244 538 294 464 244 490 b 414 640 244 617 283 640 b 576 553 528 640 567 621 l 692 553 b 415 743 683 700 621 743 b 131 539 196 743 131 696 b 382 332 131 419 189 371 b 592 194 544 299 592 268 b 418 89 592 111 551 88 b 239 206 286 90 244 117 z "},"ß":{"ha":833,"x_min":0,"x_max":0,"o":"m 131 682 l 131 0 l 246 0 l 246 682 b 421 844 246 807 286 844 b 583 694 546 844 583 810 b 365 540 583 582 533 546 l 365 435 b 621 257 563 435 621 394 b 338 108 621 99 556 65 l 338 3 b 738 249 646 -39 738 17 b 531 492 738 401 690 457 l 531 500 b 697 703 660 521 697 568 b 421 947 697 892 635 947 b 131 682 189 947 124 886 z "},"t":{"ha":833,"x_min":0,"x_max":0,"o":"m 503 -15 b 693 0 551 -15 615 -10 l 693 103 b 549 90 632 94 586 90 b 408 224 426 90 408 136 l 408 622 l 663 622 l 663 725 l 408 725 l 408 933 l 300 888 l 300 725 l 135 725 l 107 622 l 294 622 l 294 218 b 503 -15 294 53 322 -15 z "},"ť":{"ha":833,"x_min":0,"x_max":0,"o":"m 503 -15 b 693 0 551 -15 615 -10 l 693 103 b 549 90 632 94 586 90 b 408 224 426 90 408 136 l 408 622 l 663 622 l 663 725 l 408 725 l 408 933 l 300 888 l 300 725 l 135 725 l 107 622 l 294 622 l 294 218 b 503 -15 294 53 322 -15 z m 488 831 l 583 831 l 653 1090 l 531 1090 z "},"ţ":{"ha":833,"x_min":0,"x_max":0,"o":"m 490 -324 b 650 -199 614 -324 650 -296 b 486 -89 650 -114 621 -90 l 551 -14 b 693 0 592 -11 639 -7 l 693 103 b 549 90 632 94 586 90 b 408 224 426 90 408 136 l 408 622 l 663 622 l 663 725 l 408 725 l 408 933 l 300 888 l 300 725 l 135 725 l 107 622 l 294 622 l 294 218 b 458 -14 294 67 318 -3 l 413 -94 l 413 -154 l 463 -154 b 563 -201 539 -154 563 -164 b 482 -253 563 -240 543 -253 b 404 -244 443 -253 425 -250 l 404 -312 b 490 -324 436 -321 456 -324 z "},"ț":{"ha":833,"x_min":0,"x_max":0,"o":"m 422 -361 l 521 -361 l 632 -101 l 507 -101 z m 107 622 l 294 622 l 294 218 b 503 -15 294 53 322 -15 b 693 0 551 -15 615 -10 l 693 103 b 549 90 632 94 586 90 b 408 224 426 90 408 136 l 408 622 l 663 622 l 663 725 l 408 725 l 408 933 l 300 888 l 300 725 l 135 725 z "},"u":{"ha":833,"x_min":0,"x_max":0,"o":"m 349 -14 b 578 108 483 -14 536 15 l 588 108 l 588 0 l 703 0 l 703 725 l 588 725 l 588 350 b 383 90 588 150 540 90 b 240 258 274 90 240 129 l 240 725 l 124 725 l 124 261 b 349 -14 124 49 175 -14 z "},"ú":{"ha":833,"x_min":0,"x_max":0,"o":"m 349 -14 b 578 108 483 -14 536 15 l 588 108 l 588 0 l 703 0 l 703 725 l 588 725 l 588 350 b 383 90 588 150 540 90 b 240 258 274 90 240 129 l 240 725 l 124 725 l 124 261 b 349 -14 124 49 175 -14 z m 257 838 l 396 838 l 611 1083 l 449 1083 z "},"û":{"ha":833,"x_min":0,"x_max":0,"o":"m 349 -14 b 578 108 483 -14 536 15 l 588 108 l 588 0 l 703 0 l 703 725 l 588 725 l 588 350 b 383 90 588 150 540 90 b 240 258 274 90 240 129 l 240 725 l 124 725 l 124 261 b 349 -14 124 49 175 -14 z m 144 832 l 267 832 l 392 985 l 415 985 l 540 832 l 663 832 l 457 1083 l 350 1083 z "},"ü":{"ha":833,"x_min":0,"x_max":0,"o":"m 349 -14 b 578 108 483 -14 536 15 l 588 108 l 588 0 l 703 0 l 703 725 l 588 725 l 588 350 b 383 90 588 150 540 90 b 240 258 274 90 240 129 l 240 725 l 124 725 l 124 261 b 349 -14 124 49 175 -14 z m 190 875 l 338 875 l 338 1025 l 190 1025 z m 471 875 l 618 875 l 618 1025 l 471 1025 z "},"ù":{"ha":833,"x_min":0,"x_max":0,"o":"m 349 -14 b 578 108 483 -14 536 15 l 588 108 l 588 0 l 703 0 l 703 725 l 588 725 l 588 350 b 383 90 588 150 540 90 b 240 258 274 90 240 129 l 240 725 l 124 725 l 124 261 b 349 -14 124 49 175 -14 z m 140 1083 l 356 838 l 494 838 l 303 1083 z "},"ű":{"ha":833,"x_min":0,"x_max":0,"o":"m 349 -14 b 578 108 483 -14 536 15 l 588 108 l 588 0 l 703 0 l 703 725 l 588 725 l 588 350 b 383 90 588 150 540 90 b 240 258 274 90 240 129 l 240 725 l 124 725 l 124 261 b 349 -14 124 49 175 -14 z m 174 838 l 313 838 l 528 1083 l 365 1083 z m 479 839 l 618 839 l 833 1085 l 671 1085 z "},"ū":{"ha":833,"x_min":0,"x_max":0,"o":"m 349 -14 b 578 108 483 -14 536 15 l 588 108 l 588 0 l 703 0 l 703 725 l 588 725 l 588 350 b 383 90 588 150 540 90 b 240 258 274 90 240 129 l 240 725 l 124 725 l 124 261 b 349 -14 124 49 175 -14 z m 193 918 l 614 918 l 614 1010 l 193 1010 z "},"ų":{"ha":833,"x_min":0,"x_max":0,"o":"m 603 -242 b 683 -231 626 -242 644 -239 l 683 -162 b 629 -171 664 -169 651 -171 b 563 -106 569 -171 554 -156 b 650 -24 568 -71 588 -51 l 703 0 l 703 725 l 588 725 l 588 350 b 383 90 588 150 540 90 b 240 258 274 90 240 129 l 240 725 l 124 725 l 124 261 b 349 -14 124 49 175 -14 b 578 108 483 -14 536 15 l 588 108 l 588 0 b 474 -110 507 -39 481 -64 b 603 -242 457 -211 486 -242 z "},"ů":{"ha":833,"x_min":0,"x_max":0,"o":"m 349 -14 b 578 108 483 -14 536 15 l 588 108 l 588 0 l 703 0 l 703 725 l 588 725 l 588 350 b 383 90 588 150 540 90 b 240 258 274 90 240 129 l 240 725 l 124 725 l 124 261 b 349 -14 124 49 175 -14 z m 265 958 b 401 822 265 861 304 822 b 542 958 501 822 542 861 b 401 1097 542 1057 501 1097 b 265 958 304 1097 265 1057 z m 342 958 b 401 1032 342 1013 357 1032 b 465 958 449 1032 465 1013 b 401 890 465 908 449 890 b 342 958 357 890 342 908 z "},"v":{"ha":833,"x_min":0,"x_max":0,"o":"m 354 0 l 478 0 l 751 725 l 629 725 l 421 135 l 411 135 l 203 725 l 81 725 z "},"w":{"ha":833,"x_min":0,"x_max":0,"o":"m 664 0 l 819 726 l 697 726 l 604 139 l 592 139 l 478 725 l 357 725 l 242 139 l 229 139 l 136 726 l 14 726 l 169 0 l 296 0 l 414 596 l 421 596 l 538 0 z "},"ẃ":{"ha":833,"x_min":0,"x_max":0,"o":"m 664 0 l 819 726 l 697 726 l 604 139 l 592 139 l 478 725 l 357 725 l 242 139 l 229 139 l 136 726 l 14 726 l 169 0 l 296 0 l 414 596 l 421 596 l 538 0 z m 257 838 l 396 838 l 611 1083 l 449 1083 z "},"ŵ":{"ha":833,"x_min":0,"x_max":0,"o":"m 664 0 l 819 726 l 697 726 l 604 139 l 592 139 l 478 725 l 357 725 l 242 139 l 229 139 l 136 726 l 14 726 l 169 0 l 296 0 l 414 596 l 421 596 l 538 0 z m 144 832 l 267 832 l 392 985 l 415 985 l 540 832 l 663 832 l 457 1083 l 350 1083 z "},"ẅ":{"ha":833,"x_min":0,"x_max":0,"o":"m 664 0 l 819 726 l 697 726 l 604 139 l 592 139 l 478 725 l 357 725 l 242 139 l 229 139 l 136 726 l 14 726 l 169 0 l 296 0 l 414 596 l 421 596 l 538 0 z m 190 875 l 338 875 l 338 1025 l 190 1025 z m 471 875 l 618 875 l 618 1025 l 471 1025 z "},"ẁ":{"ha":833,"x_min":0,"x_max":0,"o":"m 664 0 l 819 726 l 697 726 l 604 139 l 592 139 l 478 725 l 357 725 l 242 139 l 229 139 l 136 726 l 14 726 l 169 0 l 296 0 l 414 596 l 421 596 l 538 0 z m 140 1083 l 356 838 l 494 838 l 303 1083 z "},"x":{"ha":833,"x_min":0,"x_max":0,"o":"m 94 0 l 232 0 l 415 286 l 417 286 l 601 0 l 739 0 l 490 367 l 726 725 l 592 725 l 418 442 l 415 442 l 242 725 l 107 725 l 342 367 z "},"y":{"ha":833,"x_min":0,"x_max":0,"o":"m 261 -307 l 378 -307 l 736 725 l 618 725 l 418 136 l 415 136 l 208 725 l 90 725 l 332 53 l 388 53 z "},"ý":{"ha":833,"x_min":0,"x_max":0,"o":"m 261 -307 l 378 -307 l 736 725 l 618 725 l 418 136 l 415 136 l 208 725 l 90 725 l 332 53 l 388 53 z m 257 838 l 396 838 l 611 1083 l 449 1083 z "},"ŷ":{"ha":833,"x_min":0,"x_max":0,"o":"m 261 -307 l 378 -307 l 736 725 l 618 725 l 418 136 l 415 136 l 208 725 l 90 725 l 332 53 l 388 53 z m 144 832 l 267 832 l 392 985 l 415 985 l 540 832 l 663 832 l 457 1083 l 350 1083 z "},"ÿ":{"ha":833,"x_min":0,"x_max":0,"o":"m 261 -307 l 378 -307 l 736 725 l 618 725 l 418 136 l 415 136 l 208 725 l 90 725 l 332 53 l 388 53 z m 190 875 l 338 875 l 338 1025 l 190 1025 z m 471 875 l 618 875 l 618 1025 l 471 1025 z "},"ỳ":{"ha":833,"x_min":0,"x_max":0,"o":"m 261 -307 l 378 -307 l 736 725 l 618 725 l 418 136 l 415 136 l 208 725 l 90 725 l 332 53 l 388 53 z m 140 1083 l 356 838 l 494 838 l 303 1083 z "},"z":{"ha":833,"x_min":0,"x_max":0,"o":"m 136 0 l 693 0 l 693 104 l 268 103 l 693 629 l 693 725 l 160 725 l 160 624 l 561 624 l 136 101 z "},"ź":{"ha":833,"x_min":0,"x_max":0,"o":"m 136 0 l 693 0 l 693 104 l 268 103 l 693 629 l 693 725 l 160 725 l 160 624 l 561 624 l 136 101 z m 257 838 l 396 838 l 611 1083 l 449 1083 z "},"ž":{"ha":833,"x_min":0,"x_max":0,"o":"m 136 0 l 693 0 l 693 104 l 268 103 l 693 629 l 693 725 l 160 725 l 160 624 l 561 624 l 136 101 z m 144 1083 l 350 832 l 457 832 l 663 1083 l 540 1083 l 415 931 l 392 931 l 267 1083 z "},"ż":{"ha":833,"x_min":0,"x_max":0,"o":"m 136 0 l 693 0 l 693 104 l 268 103 l 693 629 l 693 725 l 160 725 l 160 624 l 561 624 l 136 101 z m 331 875 l 478 875 l 478 1025 l 331 1025 z "},"ª":{"ha":833,"x_min":0,"x_max":0,"o":"m 346 -14 b 568 93 469 -14 521 11 l 578 93 l 578 0 l 683 0 l 683 492 b 408 743 683 686 621 743 b 143 538 204 743 143 696 l 260 538 b 408 642 263 618 296 642 b 574 492 536 642 574 607 l 574 457 l 443 457 b 121 201 194 457 121 399 b 346 -14 121 35 172 -14 z m 238 214 b 415 357 238 322 278 356 l 572 358 b 375 90 572 151 526 90 b 238 214 269 90 238 118 z "},"º":{"ha":833,"x_min":0,"x_max":0,"o":"m 415 -14 b 726 364 656 -14 726 74 b 415 743 726 656 656 743 b 106 364 176 743 106 657 b 415 -14 106 72 176 -14 z m 222 364 b 415 640 222 578 267 640 b 610 364 565 640 610 578 b 415 90 610 153 565 90 b 222 364 267 90 222 153 z "},"μ":{"ha":833,"x_min":0,"x_max":0,"o":"m 128 -299 l 244 -299 l 244 -1 b 353 -14 274 -10 310 -14 b 582 108 488 -14 540 15 l 592 108 l 592 0 l 707 0 l 707 725 l 592 725 l 592 350 b 388 90 592 150 544 90 b 244 258 278 90 244 129 l 244 725 l 128 725 z "}," ":{"ha":833,"x_min":0,"x_max":0,"o":""},".":{"ha":833,"x_min":0,"x_max":0,"o":"m 311 0 l 522 0 l 522 213 l 311 213 z "},",":{"ha":833,"x_min":0,"x_max":0,"o":"m 329 51 l 235 -244 l 349 -244 l 490 47 b 500 85 497 61 500 79 l 500 188 l 333 188 l 333 79 b 329 51 333 72 332 60 z "},":":{"ha":833,"x_min":0,"x_max":0,"o":"m 311 56 l 522 56 l 522 268 l 311 268 z m 311 588 l 522 588 l 522 800 l 311 800 z "},";":{"ha":833,"x_min":0,"x_max":0,"o":"m 326 132 l 232 -164 l 346 -164 l 488 128 b 497 165 494 142 497 160 l 497 268 l 331 268 l 331 160 b 326 132 331 153 329 140 z m 311 588 l 522 588 l 522 800 l 311 800 z "},"…":{"ha":833,"x_min":0,"x_max":0,"o":"m 26 0 l 196 0 l 196 169 l 26 169 z m 332 0 l 501 0 l 501 169 l 332 169 z m 638 0 l 807 0 l 807 169 l 638 169 z "},"!":{"ha":833,"x_min":0,"x_max":0,"o":"m 378 338 l 456 338 l 475 629 l 475 994 l 358 994 l 358 629 z m 322 0 l 511 0 l 511 192 l 322 192 z "},"¡":{"ha":833,"x_min":0,"x_max":0,"o":"m 382 663 l 363 371 l 363 6 l 479 6 l 479 371 l 460 663 z m 326 808 l 515 808 l 515 1000 l 326 1000 z "},"?":{"ha":833,"x_min":0,"x_max":0,"o":"m 322 361 l 322 286 l 433 286 l 433 361 b 708 689 433 485 708 422 b 414 957 708 911 658 957 b 128 732 178 957 129 918 l 244 732 b 414 858 244 836 274 858 b 594 689 564 858 594 829 b 322 361 594 475 322 588 z m 286 0 l 475 0 l 475 192 l 286 192 z "},"¿":{"ha":833,"x_min":0,"x_max":0,"o":"m 515 596 l 515 671 l 404 671 l 404 596 b 129 268 404 472 129 535 b 424 0 129 46 179 0 b 710 225 660 0 708 39 l 593 225 b 424 99 593 121 564 99 b 243 268 274 99 243 128 b 515 596 243 482 515 369 z m 363 765 l 551 765 l 551 957 l 363 957 z "},"·":{"ha":833,"x_min":0,"x_max":0,"o":"m 311 319 l 522 319 l 522 532 l 311 532 z "},"•":{"ha":833,"x_min":0,"x_max":0,"o":"m 417 239 b 600 422 518 239 600 321 b 417 606 600 524 518 606 b 233 422 315 606 233 524 b 417 239 233 321 315 239 z "},"*":{"ha":833,"x_min":0,"x_max":0,"o":"m 547 211 l 644 283 l 582 368 l 472 468 l 474 476 l 625 496 l 724 526 l 686 643 l 588 613 l 456 539 l 447 544 l 476 693 l 476 794 l 353 794 l 353 693 l 383 544 l 376 536 l 244 613 l 147 640 l 111 529 l 207 497 l 357 476 l 360 468 l 246 365 l 188 285 l 288 213 l 346 293 l 410 429 l 421 429 l 485 294 z "},"#":{"ha":833,"x_min":0,"x_max":0,"o":"m 114 0 l 215 0 l 269 254 l 465 254 l 411 0 l 515 0 l 569 254 l 724 254 l 744 354 l 590 354 l 642 592 l 796 592 l 817 690 l 663 690 l 717 944 l 613 944 l 558 690 l 363 690 l 417 944 l 315 944 l 261 690 l 114 690 l 93 592 l 240 592 l 189 354 l 42 354 l 21 254 l 168 254 z m 283 349 l 338 597 l 544 597 l 490 349 z "},"/":{"ha":833,"x_min":0,"x_max":0,"o":"m 115 -158 l 232 -158 l 717 1067 l 599 1067 z "},"\\":{"ha":833,"x_min":0,"x_max":0,"o":"m 722 -158 l 229 1067 l 110 1067 l 604 -158 z "},"-":{"ha":833,"x_min":0,"x_max":0,"o":"m 179 358 l 654 358 l 654 469 l 179 469 z "},"–":{"ha":833,"x_min":0,"x_max":0,"o":"m 111 360 l 722 360 l 722 468 l 111 468 z "},"—":{"ha":833,"x_min":0,"x_max":0,"o":"m 0 361 l 833 361 l 833 467 l 0 467 z "},"‐":{"ha":833,"x_min":0,"x_max":0,"o":"m 179 358 l 654 358 l 654 469 l 179 469 z "},"_":{"ha":833,"x_min":0,"x_max":0,"o":"m 83 -236 l 750 -236 l 750 -122 l 83 -122 z "},"‗":{"ha":833,"x_min":0,"x_max":0,"o":"m 81 -299 l 747 -299 l 747 -199 l 81 -199 z m 81 -100 l 747 -100 l 747 0 l 81 0 z "},"(":{"ha":833,"x_min":0,"x_max":0,"o":"m 658 -158 l 657 -39 b 440 185 521 -26 472 25 b 415 454 421 290 415 353 b 440 724 415 556 421 618 b 657 947 471 883 519 935 l 658 1067 b 332 757 461 1054 388 983 b 300 454 307 653 300 583 b 332 151 300 325 307 256 b 658 -158 386 -75 461 -146 z "},")":{"ha":833,"x_min":0,"x_max":0,"o":"m 176 -39 l 175 -158 b 501 151 372 -146 447 -75 b 533 454 526 256 533 325 b 501 757 533 583 526 653 b 175 1067 446 983 372 1054 l 176 947 b 393 724 314 935 363 883 b 418 454 413 618 418 556 b 393 185 418 353 413 290 b 176 -39 361 25 313 -26 z "},"{":{"ha":833,"x_min":0,"x_max":0,"o":"m 667 -158 l 667 -50 b 482 146 428 -50 442 -50 b 336 439 533 397 504 413 l 336 469 b 482 763 504 496 533 511 b 667 958 442 958 428 958 l 667 1067 b 385 706 317 1067 318 1051 b 226 529 410 574 411 564 l 226 379 b 385 203 411 342 410 332 b 667 -158 318 -143 317 -158 z "},"}":{"ha":833,"x_min":0,"x_max":0,"o":"m 167 -50 l 167 -158 b 449 203 517 -158 515 -143 b 607 379 424 332 422 342 l 607 529 b 449 706 422 564 424 574 b 167 1067 515 1051 517 1067 l 167 958 b 351 763 406 958 392 958 b 497 469 300 511 329 496 l 497 439 b 351 146 329 413 300 397 b 167 -50 392 -50 406 -50 z "},"[":{"ha":833,"x_min":0,"x_max":0,"o":"m 329 -158 l 667 -158 l 667 -57 l 443 -57 l 443 965 l 667 965 l 667 1067 l 329 1067 z "},"]":{"ha":833,"x_min":0,"x_max":0,"o":"m 504 -158 l 504 1067 l 167 1067 l 167 965 l 390 965 l 390 -57 l 167 -57 l 167 -158 z "},"‚":{"ha":833,"x_min":0,"x_max":0,"o":"m 335 51 l 240 -244 l 354 -244 l 496 47 b 506 85 503 61 506 79 l 506 188 l 339 188 l 339 79 b 335 51 339 72 338 60 z "},"„":{"ha":833,"x_min":0,"x_max":0,"o":"m 240 51 l 156 -244 l 258 -244 l 386 47 b 394 85 392 61 394 79 l 394 188 l 244 188 l 244 79 b 240 51 244 72 243 60 z m 410 -244 l 513 -244 l 640 47 b 649 85 646 61 649 79 l 649 188 l 499 188 l 499 79 b 494 51 499 72 497 60 z "},"“":{"ha":833,"x_min":0,"x_max":0,"o":"m 599 871 b 594 899 596 879 594 892 l 594 1007 l 444 1007 l 444 904 b 453 867 444 899 447 881 l 581 575 l 683 575 z m 190 904 b 199 867 190 899 193 881 l 326 575 l 429 575 l 344 871 b 340 899 342 879 340 892 l 340 1007 l 190 1007 z "},"”":{"ha":833,"x_min":0,"x_max":0,"o":"m 217 871 l 132 575 l 235 575 l 363 867 b 371 904 368 881 371 899 l 371 1007 l 221 1007 l 221 899 b 217 871 221 892 219 879 z m 386 575 l 489 575 l 617 867 b 625 904 622 881 625 899 l 625 1007 l 475 1007 l 475 899 b 471 871 475 892 474 879 z "},"‘":{"ha":833,"x_min":0,"x_max":0,"o":"m 465 736 l 560 1032 l 446 1032 l 304 740 b 294 703 297 726 294 708 l 294 600 l 461 600 l 461 708 b 465 736 461 715 463 728 z "},"’":{"ha":833,"x_min":0,"x_max":0,"o":"m 293 872 l 199 576 l 313 576 l 454 868 b 464 906 461 882 464 900 l 464 1008 l 297 1008 l 297 900 b 293 872 297 893 296 881 z "},"«":{"ha":833,"x_min":0,"x_max":0,"o":"m 336 83 l 458 83 l 286 358 l 457 631 l 336 631 l 164 358 z m 442 358 l 614 83 l 736 83 l 564 358 l 735 631 l 614 631 z "},"»":{"ha":833,"x_min":0,"x_max":0,"o":"m 564 83 l 736 358 l 564 631 l 443 631 l 614 358 l 442 83 z m 164 83 l 286 83 l 458 358 l 286 631 l 165 631 l 336 358 z "},"‹":{"ha":833,"x_min":0,"x_max":0,"o":"m 468 83 l 590 83 l 418 358 l 589 631 l 468 631 l 296 358 z "},"›":{"ha":833,"x_min":0,"x_max":0,"o":"m 364 83 l 536 358 l 364 631 l 243 631 l 414 358 l 242 83 z "},"\"":{"ha":833,"x_min":0,"x_max":0,"o":"m 235 563 l 318 563 l 343 910 l 343 1008 l 210 1008 l 210 910 z m 488 910 l 513 563 l 596 563 l 621 910 l 621 1008 l 488 1008 z "},"'":{"ha":833,"x_min":0,"x_max":0,"o":"m 368 563 l 461 563 l 489 910 l 489 1008 l 340 1008 l 340 910 z "},"ƒ":{"ha":833,"x_min":0,"x_max":0,"o":"m 71 -149 l 199 -149 b 408 97 371 -149 364 -114 l 517 615 l 683 615 l 707 725 l 539 725 l 560 824 b 667 946 582 928 575 946 l 765 946 l 788 1056 l 676 1056 b 449 817 499 1056 490 1011 l 429 725 l 213 725 l 246 615 l 406 615 l 296 100 b 210 -39 268 -31 263 -39 l 93 -39 z "},"@":{"ha":833,"x_min":0,"x_max":0,"o":"m 301 -122 l 581 -122 l 581 -19 l 299 -19 b 176 107 193 -19 176 3 l 176 713 b 303 854 176 831 193 854 l 588 854 b 667 708 653 854 667 829 l 667 604 l 656 604 b 532 660 604 660 604 660 b 318 406 346 660 318 660 b 538 150 318 150 346 150 b 658 203 628 150 628 150 l 668 203 b 700 153 686 153 686 153 l 754 153 l 756 644 l 756 708 b 588 958 756 915 726 958 l 304 958 b 76 710 111 958 76 915 l 76 104 b 301 -122 76 -83 110 -122 z m 413 404 b 550 563 413 563 440 563 b 661 401 661 563 661 563 b 550 247 661 247 661 247 b 413 404 440 247 413 247 z "},"&":{"ha":833,"x_min":0,"x_max":0,"o":"m 376 -14 b 635 65 497 -14 581 7 l 690 0 l 817 0 l 688 156 b 719 450 711 225 721 321 l 617 450 b 611 240 617 371 621 290 l 390 507 b 578 760 531 644 578 711 b 349 958 578 913 526 958 b 119 760 172 958 119 913 b 254 518 119 706 151 643 b 68 247 113 389 68 335 b 376 -14 68 46 139 -14 z m 174 242 b 314 446 174 290 204 338 l 568 143 b 376 82 531 90 465 82 b 174 242 219 82 174 119 z m 226 760 b 350 865 226 840 256 865 b 472 760 444 865 472 840 b 328 583 472 728 438 693 b 226 760 246 685 226 721 z "},"¶":{"ha":833,"x_min":0,"x_max":0,"o":"m 414 486 l 414 -128 l 519 -128 l 519 890 l 656 890 l 656 -128 l 761 -128 l 761 992 l 414 992 b 146 906 179 992 161 976 b 132 739 139 869 132 836 b 147 569 132 642 139 608 b 414 486 161 501 182 486 z "},"§":{"ha":833,"x_min":0,"x_max":0,"o":"m 424 -81 b 663 110 590 -81 663 -24 b 592 267 663 182 642 231 b 671 418 647 296 671 344 b 457 642 671 536 610 599 b 268 769 322 681 268 707 b 411 857 268 824 308 857 b 546 771 500 857 539 832 l 643 771 b 410 958 638 904 571 958 b 171 768 243 958 171 901 b 244 608 171 694 193 644 b 163 456 188 579 163 531 b 376 236 163 343 224 279 b 565 108 511 197 565 171 b 422 21 565 54 525 21 b 288 107 333 21 294 46 l 190 107 b 424 -81 196 -26 263 -81 z m 261 465 b 369 558 261 521 292 550 l 386 554 b 572 414 519 522 572 485 b 465 319 572 357 539 328 l 447 324 b 261 465 314 356 261 392 z "},"©":{"ha":833,"x_min":0,"x_max":0,"o":"m 428 243 b 615 378 546 243 608 281 l 528 378 b 431 322 521 333 488 322 b 296 469 329 322 296 358 b 424 619 296 578 328 619 b 524 558 485 619 515 604 l 610 558 b 417 699 604 650 538 699 b 208 469 274 699 208 629 b 428 243 208 308 274 243 z m 31 468 b 60 239 31 406 35 326 b 414 33 111 61 197 33 b 771 235 640 33 718 64 b 801 463 794 310 801 379 b 769 708 801 593 785 658 b 413 908 718 871 649 908 b 63 707 186 908 115 874 b 31 468 47 658 31 592 z m 114 469 b 142 678 114 583 128 633 b 414 822 182 806 213 822 b 690 679 622 822 651 804 b 718 468 704 633 718 582 b 692 264 718 375 708 319 b 414 119 654 138 621 119 b 142 263 214 119 176 136 b 114 469 126 317 114 364 z "},"®":{"ha":833,"x_min":0,"x_max":0,"o":"m 431 446 b 640 565 561 446 607 463 b 658 700 654 610 658 650 b 639 844 658 779 647 815 b 428 964 608 942 568 964 b 221 844 293 964 251 943 b 201 703 211 815 201 776 b 218 568 201 663 206 613 b 431 446 249 463 301 446 z m 251 704 b 267 828 251 771 258 801 b 428 913 292 903 310 913 b 592 828 551 913 569 903 b 608 703 600 801 608 771 b 593 582 608 649 603 615 b 428 497 571 507 551 497 b 267 582 310 497 288 507 b 251 704 258 614 251 642 z m 315 549 l 360 549 l 360 676 l 408 676 b 490 638 460 676 482 668 l 513 549 l 563 549 l 536 639 b 476 692 524 676 504 688 l 476 696 b 546 768 531 700 546 715 b 369 851 544 838 507 856 l 315 851 z m 360 717 l 360 811 b 443 811 392 814 411 813 b 501 768 488 808 501 800 b 444 718 501 729 489 718 z "},"™":{"ha":833,"x_min":0,"x_max":0,"o":"m 185 653 l 229 653 l 229 914 l 336 914 l 336 956 l 78 956 l 78 914 l 185 914 z m 379 653 l 421 653 l 421 892 l 425 892 l 493 758 l 533 758 l 600 892 l 606 892 l 604 804 l 604 653 l 646 653 l 646 956 l 586 956 l 515 806 l 510 806 l 440 956 l 379 956 z "},"°":{"ha":833,"x_min":0,"x_max":0,"o":"m 289 621 b 479 807 425 621 479 675 b 289 997 479 946 425 997 b 103 807 154 997 103 946 b 289 621 103 675 154 621 z m 192 807 b 289 922 192 900 210 922 b 390 807 368 922 390 900 b 289 700 390 719 368 700 b 192 807 210 700 192 719 z "},"′":{"ha":833,"x_min":0,"x_max":0,"o":"m 368 563 l 461 563 l 489 910 l 489 1008 l 340 1008 l 340 910 z "},"″":{"ha":833,"x_min":0,"x_max":0,"o":"m 235 563 l 318 563 l 343 910 l 343 1008 l 210 1008 l 210 910 z m 488 910 l 513 563 l 596 563 l 621 910 l 621 1008 l 488 1008 z "},"|":{"ha":833,"x_min":0,"x_max":0,"o":"m 360 -136 l 474 -136 l 474 1075 l 360 1075 z "},"¦":{"ha":833,"x_min":0,"x_max":0,"o":"m 360 -136 l 474 -136 l 474 367 l 360 367 z m 360 608 l 474 608 l 474 1075 l 360 1075 z "},"†":{"ha":833,"x_min":0,"x_max":0,"o":"m 361 -12 l 475 -12 l 475 668 l 700 668 l 700 771 l 475 771 l 475 1090 l 361 1090 l 361 771 l 133 771 l 133 668 l 361 668 z "},"‡":{"ha":833,"x_min":0,"x_max":0,"o":"m 135 307 l 360 307 l 360 -12 l 474 -12 l 474 307 l 701 307 l 701 410 l 474 410 l 474 668 l 699 668 l 699 771 l 474 771 l 474 1090 l 360 1090 l 360 771 l 132 771 l 132 668 l 360 668 l 360 410 l 135 410 z "},"℮":{"ha":833,"x_min":0,"x_max":0,"o":"m 438 19 b 668 153 574 19 639 57 l 611 153 b 433 64 596 89 544 64 b 272 111 346 64 300 78 l 269 333 l 692 333 b 418 704 690 599 613 704 b 142 357 221 704 142 606 b 438 19 142 115 226 19 z m 269 382 l 269 615 b 426 660 293 647 339 660 b 564 615 488 660 528 647 l 564 382 z "},"₿":{"ha":833,"x_min":0,"x_max":0,"o":"m 361 106 l 408 106 l 408 -6 l 497 -6 l 497 111 b 733 326 675 128 733 186 b 563 519 733 449 696 494 l 563 526 b 694 690 665 546 694 588 b 497 893 694 813 646 871 l 497 1017 l 408 1017 l 408 900 b 314 903 379 903 349 903 l 311 903 l 311 1017 l 222 1017 l 222 900 l 125 900 l 125 115 b 222 108 160 113 192 110 l 222 -6 l 311 -6 l 311 106 z m 242 214 l 242 467 l 421 467 b 614 336 568 467 614 438 b 397 208 614 240 561 208 b 242 214 335 208 297 208 z m 242 569 l 242 799 b 424 796 325 801 363 800 b 578 681 546 788 578 763 b 454 569 578 599 550 572 z "},"¢":{"ha":833,"x_min":0,"x_max":0,"o":"m 382 1 l 472 1 l 472 100 b 715 315 647 106 704 157 l 600 315 b 472 206 582 238 553 210 l 472 751 b 600 626 553 746 583 714 l 715 626 b 472 857 706 794 649 851 l 472 946 l 382 946 l 382 856 b 128 476 188 840 128 744 b 382 103 128 213 188 117 z m 244 474 b 382 746 244 654 278 728 l 382 211 b 244 474 278 229 244 300 z "},"¤":{"ha":833,"x_min":0,"x_max":0,"o":"m 417 140 b 594 178 497 140 554 151 l 669 103 l 729 161 l 646 244 b 669 413 663 286 669 340 b 646 583 669 486 663 542 l 729 667 l 669 726 l 593 650 b 417 689 554 678 497 689 b 240 650 336 689 279 678 l 164 726 l 106 667 l 188 585 b 164 413 171 543 164 486 b 189 244 164 340 171 285 l 106 161 l 164 103 l 239 178 b 417 140 279 151 336 140 z m 271 413 b 417 593 271 551 304 593 b 564 413 531 593 564 551 b 417 238 564 278 531 238 b 271 413 304 238 271 278 z "},"$":{"ha":833,"x_min":0,"x_max":0,"o":"m 374 -129 l 464 -129 l 464 17 b 731 253 668 22 731 82 b 472 528 731 401 671 464 b 464 531 469 529 467 529 l 464 831 b 604 717 561 824 594 793 l 714 717 b 464 928 704 868 646 921 l 464 1060 l 374 1060 l 374 929 b 110 703 171 922 110 867 b 374 451 110 572 171 514 l 374 115 b 207 258 260 124 221 161 l 103 258 b 374 17 104 83 167 24 z m 213 697 b 374 832 213 793 250 826 l 374 561 b 213 697 251 607 213 643 z m 464 114 l 464 422 b 628 251 588 376 628 331 b 464 114 628 156 589 119 z "},"€":{"ha":833,"x_min":0,"x_max":0,"o":"m 46 533 l 167 533 b 165 471 165 514 165 493 b 167 397 165 444 165 421 l 46 397 l 18 311 l 171 311 b 500 -14 194 64 282 -14 b 788 222 682 -14 771 40 l 675 222 b 501 85 657 121 613 85 b 282 311 367 85 303 139 l 524 311 l 551 397 l 275 397 b 274 474 274 421 274 446 b 275 533 274 494 274 514 l 551 533 l 579 619 l 281 619 b 506 860 299 803 363 860 b 667 715 601 860 646 836 l 779 715 b 499 958 763 903 682 958 b 171 619 278 958 192 878 l 74 619 z "},"₺":{"ha":833,"x_min":0,"x_max":0,"o":"m 161 1 l 474 1 b 735 242 618 1 674 53 l 613 242 b 474 111 576 139 547 111 l 281 111 l 281 356 l 494 432 l 494 524 l 281 446 l 281 558 l 496 636 l 496 726 l 281 649 l 281 944 l 161 944 l 161 606 l 17 554 l 17 464 l 161 515 l 161 403 l 15 350 l 15 260 l 161 313 z "},"₽":{"ha":833,"x_min":0,"x_max":0,"o":"m 182 0 l 301 0 l 301 179 l 458 179 l 482 276 l 301 276 l 301 364 l 399 364 b 701 654 632 364 701 433 b 182 944 701 904 613 976 l 182 469 l 82 469 l 54 364 l 182 364 l 182 276 l 82 276 l 58 179 l 182 179 z m 301 469 l 301 840 l 367 842 b 583 661 533 846 583 800 b 388 469 583 517 539 469 z "},"₹":{"ha":833,"x_min":0,"x_max":0,"o":"m 472 0 l 617 0 l 301 404 b 599 622 513 404 588 456 l 682 622 l 710 717 l 597 717 b 524 846 592 781 569 822 l 671 846 l 699 944 l 151 944 l 124 846 l 244 846 b 481 717 408 846 469 815 l 163 717 l 135 622 l 481 622 b 290 503 467 536 417 507 l 171 503 l 171 394 z "},"£":{"ha":833,"x_min":0,"x_max":0,"o":"m 92 126 l 92 0 l 686 0 l 686 104 l 233 104 l 233 111 b 340 428 335 182 351 243 l 592 428 l 619 533 l 332 533 b 329 574 332 546 331 560 b 442 847 310 804 321 835 b 644 842 532 857 594 850 l 644 949 b 465 954 557 957 517 957 b 219 583 215 940 194 896 l 224 533 l 114 533 l 86 428 l 231 428 b 92 126 239 249 217 206 z "},"¥":{"ha":833,"x_min":0,"x_max":0,"o":"m 161 353 l 365 353 l 365 265 l 168 265 l 140 179 l 365 179 l 365 0 l 474 0 l 474 179 l 646 179 l 674 265 l 474 265 l 474 353 l 667 353 l 694 439 l 497 439 l 718 947 l 603 947 l 424 511 l 417 511 l 239 947 l 122 947 l 342 439 l 189 439 z "},"≡":{"ha":833,"x_min":0,"x_max":0,"o":"m 93 325 l 740 325 l 740 432 l 93 432 z m 93 103 l 740 103 l 740 210 l 93 210 z m 93 547 l 740 547 l 740 654 l 93 654 z "},"+":{"ha":833,"x_min":0,"x_max":0,"o":"m 361 67 l 472 67 l 472 367 l 753 367 l 753 472 l 472 472 l 472 764 l 361 764 l 361 472 l 81 472 l 81 367 l 361 367 z "},"−":{"ha":833,"x_min":0,"x_max":0,"o":"m 122 357 l 711 357 l 711 471 l 122 471 z "},"×":{"ha":833,"x_min":0,"x_max":0,"o":"m 214 139 l 417 340 l 618 139 l 694 215 l 493 417 l 693 617 l 617 692 l 417 492 l 219 690 l 143 615 l 342 417 l 139 214 z "},"÷":{"ha":833,"x_min":0,"x_max":0,"o":"m 93 357 l 740 357 l 740 471 l 93 471 z m 343 72 l 488 72 l 488 218 l 343 218 z m 343 600 l 488 600 l 488 746 l 343 746 z "},"=":{"ha":833,"x_min":0,"x_max":0,"o":"m 93 506 l 740 506 l 740 613 l 93 613 z m 93 228 l 740 228 l 740 335 l 93 335 z "},"≠":{"ha":833,"x_min":0,"x_max":0,"o":"m 233 32 l 347 32 l 415 228 l 740 228 l 740 335 l 451 335 l 511 506 l 740 506 l 740 613 l 547 613 l 611 796 l 496 796 l 433 613 l 93 613 l 93 506 l 396 506 l 338 335 l 93 335 l 93 228 l 300 228 z "},">":{"ha":833,"x_min":0,"x_max":0,"o":"m 104 54 l 729 358 l 729 494 l 104 799 l 104 668 l 619 432 l 619 421 l 104 185 z "},"<":{"ha":833,"x_min":0,"x_max":0,"o":"m 729 54 l 729 185 l 214 421 l 214 432 l 729 668 l 729 799 l 104 494 l 104 358 z "},"≥":{"ha":833,"x_min":0,"x_max":0,"o":"m 104 197 l 729 440 l 729 581 l 104 824 l 104 704 l 481 561 l 619 515 l 619 506 l 481 460 l 104 317 z m 104 50 l 729 50 l 729 154 l 104 154 z "},"≤":{"ha":833,"x_min":0,"x_max":0,"o":"m 729 197 l 729 317 l 353 460 l 214 506 l 214 515 l 353 561 l 729 704 l 729 824 l 104 581 l 104 440 z m 104 50 l 729 50 l 729 154 l 104 154 z "},"±":{"ha":833,"x_min":0,"x_max":0,"o":"m 104 64 l 729 64 l 729 154 l 104 154 z m 104 472 l 364 472 l 364 218 l 468 218 l 468 472 l 728 472 l 728 561 l 468 561 l 468 808 l 364 808 l 364 561 l 104 561 z "},"≈":{"ha":833,"x_min":0,"x_max":0,"o":"m 578 379 b 743 599 736 379 743 404 l 651 599 b 585 458 651 482 644 458 b 449 539 553 458 531 467 b 254 628 361 617 339 628 b 90 426 97 628 90 619 l 183 426 b 247 549 183 540 190 549 b 386 468 285 549 304 542 b 578 379 475 389 496 379 z m 90 149 l 183 149 b 247 271 183 263 190 271 b 386 190 285 271 304 264 b 578 101 475 111 496 101 b 743 321 736 101 743 126 l 651 321 b 585 181 651 204 644 181 b 449 261 553 181 531 189 b 254 350 361 339 339 350 b 90 149 97 350 90 342 z "},"~":{"ha":833,"x_min":0,"x_max":0,"o":"m 578 271 b 757 508 736 271 757 296 l 651 508 b 585 364 651 381 644 364 b 449 458 553 364 531 375 b 254 558 361 547 339 558 b 76 326 97 558 76 535 l 183 326 b 247 465 183 450 190 465 b 388 371 283 465 306 454 b 578 271 475 282 496 271 z "},"¬":{"ha":833,"x_min":0,"x_max":0,"o":"m 635 157 l 743 157 l 743 532 l 72 532 l 72 431 l 635 431 z "},"^":{"ha":833,"x_min":0,"x_max":0,"o":"m 150 588 l 275 588 l 410 835 l 422 835 l 557 588 l 682 588 l 490 944 l 342 944 z "},"∞":{"ha":833,"x_min":0,"x_max":0,"o":"m 224 226 b 414 335 311 226 354 251 l 419 335 b 608 226 479 251 522 226 b 807 415 761 226 807 271 b 608 603 807 560 761 603 b 419 497 524 603 479 579 l 414 497 b 224 603 354 579 310 603 b 26 415 71 603 26 560 b 224 226 26 271 71 226 z m 121 415 b 219 518 121 500 138 518 b 368 418 299 518 329 497 b 217 311 325 333 294 311 b 121 415 138 311 121 331 z m 467 418 b 613 518 503 497 535 518 b 714 415 696 518 714 500 b 617 311 714 331 696 311 b 467 418 538 311 507 333 z "},"∧":{"ha":833,"x_min":0,"x_max":0,"o":"m 44 83 l 175 83 l 411 599 l 422 599 l 658 83 l 789 83 l 485 708 l 349 708 z "},"∨":{"ha":833,"x_min":0,"x_max":0,"o":"m 44 769 l 349 144 l 485 144 l 789 769 l 658 769 l 422 254 l 411 254 l 175 769 z "},"∫":{"ha":833,"x_min":0,"x_max":0,"o":"m 151 -149 l 229 -149 b 439 97 410 -149 415 -122 l 518 824 b 625 950 531 933 532 950 l 690 950 l 690 1056 l 635 1056 b 413 817 442 1056 436 1028 l 332 100 b 240 -43 318 -28 313 -43 l 151 -43 z "},"∏":{"ha":833,"x_min":0,"x_max":0,"o":"m 178 0 l 285 0 l 285 846 l 533 846 l 533 0 l 640 0 l 640 846 l 750 846 l 750 947 l 82 947 l 82 846 l 178 846 z "},"∑":{"ha":833,"x_min":0,"x_max":0,"o":"m 136 0 l 735 0 l 735 103 l 365 103 l 268 99 l 268 107 l 335 178 l 588 468 l 588 479 l 303 803 l 268 838 l 268 846 l 365 842 l 735 842 l 735 944 l 136 944 l 136 842 l 418 519 l 461 478 l 461 469 l 418 426 l 136 103 z "},"√":{"ha":833,"x_min":0,"x_max":0,"o":"m 251 -1 l 392 -1 l 664 850 l 819 850 l 819 944 l 581 944 l 326 115 l 317 115 l 197 531 l 14 531 l 14 438 l 115 438 z "},"∂":{"ha":833,"x_min":0,"x_max":0,"o":"m 381 992 l 226 992 b 568 558 388 825 446 751 l 561 553 b 389 621 518 608 488 621 b 101 308 150 621 101 567 b 407 -12 101 42 154 -12 b 715 314 663 -12 715 43 b 381 992 715 561 658 678 z m 215 310 b 404 518 215 482 247 518 b 601 314 565 518 599 483 b 407 89 604 128 571 89 b 215 310 249 89 215 126 z "},"µ":{"ha":833,"x_min":0,"x_max":0,"o":"m 128 -299 l 244 -299 l 244 -1 b 353 -14 274 -10 310 -14 b 582 108 488 -14 540 15 l 592 108 l 592 0 l 707 0 l 707 725 l 592 725 l 592 350 b 388 90 592 150 544 90 b 244 258 278 90 244 129 l 244 725 l 128 725 z "},"%":{"ha":833,"x_min":0,"x_max":0,"o":"m 58 0 l 172 0 l 765 944 l 650 944 z m 47 760 b 226 568 47 625 99 568 b 408 760 354 568 408 626 b 226 957 408 901 354 957 b 47 760 99 957 47 901 z m 147 760 b 226 869 147 850 158 869 b 308 760 293 869 308 851 b 226 660 308 675 293 660 b 147 760 158 660 147 675 z m 424 179 b 603 -12 424 44 475 -12 b 785 179 731 -12 785 44 b 603 376 785 321 731 376 b 424 179 475 376 424 321 z m 524 179 b 603 289 524 269 535 289 b 685 179 669 289 685 271 b 603 79 685 94 669 79 b 524 179 535 79 524 94 z "},"‰":{"ha":833,"x_min":0,"x_max":0,"o":"m 6 286 l 117 286 l 792 944 l 679 944 z m 31 788 b 197 619 31 668 76 619 b 369 788 319 619 369 668 b 197 958 369 913 319 958 b 31 788 76 958 31 913 z m 110 788 b 197 892 110 871 126 892 b 289 788 269 892 289 871 b 197 692 289 708 269 692 b 110 788 126 692 110 708 z m 135 154 b 301 -14 135 35 181 -14 b 474 154 424 -14 474 35 b 301 325 474 279 424 325 b 135 154 181 325 135 279 z m 214 154 b 301 258 214 238 231 258 b 393 154 374 258 393 238 b 301 58 393 75 374 58 b 214 154 231 58 214 75 z m 490 154 b 657 -14 490 35 536 -14 b 829 154 779 -14 829 35 b 657 325 829 279 779 325 b 490 154 536 325 490 279 z m 569 154 b 657 258 569 238 586 258 b 749 154 729 258 749 238 b 657 58 749 75 729 58 b 569 154 586 58 569 75 z "},"↑":{"ha":833,"x_min":0,"x_max":0,"o":"m 368 36 l 474 36 l 474 497 l 465 617 l 732 342 l 732 489 l 426 793 l 415 793 l 110 489 l 110 342 l 376 618 l 368 497 z "},"↗":{"ha":833,"x_min":0,"x_max":0,"o":"m 115 185 l 189 110 l 515 436 l 594 526 l 588 144 l 692 247 l 692 679 l 683 688 l 253 688 l 149 583 l 532 590 l 440 511 z "},"→":{"ha":833,"x_min":0,"x_max":0,"o":"m 43 468 l 43 363 l 504 363 l 624 371 l 349 104 l 496 104 l 800 410 l 800 421 l 496 726 l 349 726 l 625 460 l 504 468 z "},"↘":{"ha":833,"x_min":0,"x_max":0,"o":"m 192 718 l 117 644 l 443 318 l 533 239 l 151 246 l 254 142 l 686 142 l 694 150 l 694 581 l 590 685 l 597 301 l 518 393 z "},"↓":{"ha":833,"x_min":0,"x_max":0,"o":"m 372 793 l 372 332 l 381 211 l 114 488 l 114 340 l 419 36 l 431 36 l 736 340 l 736 488 l 469 213 l 478 332 l 478 793 z "},"↙":{"ha":833,"x_min":0,"x_max":0,"o":"m 638 719 l 311 393 l 232 301 l 239 685 l 135 582 l 136 150 l 143 142 l 575 142 l 679 246 l 296 239 l 386 318 l 713 644 z "},"←":{"ha":833,"x_min":0,"x_max":0,"o":"m 786 468 l 325 468 l 204 460 l 481 726 l 333 726 l 29 421 l 29 410 l 333 104 l 481 104 l 206 371 l 325 363 l 786 363 z "},"↖":{"ha":833,"x_min":0,"x_max":0,"o":"m 715 186 l 389 513 l 297 592 l 681 585 l 578 689 l 146 688 l 138 681 l 138 249 l 242 144 l 235 528 l 314 438 l 640 111 z "},"↔":{"ha":833,"x_min":0,"x_max":0,"o":"m 243 158 l 361 158 l 172 360 l 172 367 l 250 365 l 583 365 l 661 367 l 661 360 l 472 158 l 590 158 l 813 408 l 813 419 l 590 669 l 472 669 l 661 468 l 661 461 l 583 463 l 250 463 l 172 461 l 172 468 l 361 669 l 243 669 l 21 419 l 21 408 z "},"↕":{"ha":833,"x_min":0,"x_max":0,"o":"m 161 583 l 161 465 l 363 654 l 369 654 l 368 576 l 368 243 l 369 165 l 363 165 l 161 354 l 161 236 l 411 14 l 422 14 l 672 236 l 672 354 l 471 165 l 464 165 l 465 243 l 465 576 l 464 654 l 471 654 l 672 465 l 672 583 l 422 806 l 411 806 z "},"▁":{"ha":833,"x_min":0,"x_max":0,"o":"m 0 -339 l 832 -339 l 833 -131 l 0 -131 z "},"▂":{"ha":833,"x_min":0,"x_max":0,"o":"m 0 -339 l 832 -339 l 833 78 l 0 78 z "},"▃":{"ha":833,"x_min":0,"x_max":0,"o":"m 0 -339 l 832 -339 l 833 286 l 0 286 z "},"▄":{"ha":833,"x_min":0,"x_max":0,"o":"m 0 -339 l 832 -339 l 833 494 l 0 494 z "},"▅":{"ha":833,"x_min":0,"x_max":0,"o":"m 0 -339 l 832 -339 l 833 703 l 0 703 z "},"▆":{"ha":833,"x_min":0,"x_max":0,"o":"m 0 -339 l 832 -339 l 833 911 l 0 911 z "},"▇":{"ha":833,"x_min":0,"x_max":0,"o":"m 0 -339 l 832 -339 l 833 1119 l 0 1119 z "},"█":{"ha":833,"x_min":0,"x_max":0,"o":"m 0 -339 l 833 -339 l 833 1328 l 0 1328 z "},"▀":{"ha":833,"x_min":0,"x_max":0,"o":"m 0 494 l 832 494 l 833 1328 l 0 1328 z "},"▔":{"ha":833,"x_min":0,"x_max":0,"o":"m 0 1119 l 832 1119 l 833 1328 l 0 1328 z "},"▏":{"ha":833,"x_min":0,"x_max":0,"o":"m 0 -339 l 103 -339 l 104 1328 l 0 1328 z "},"▎":{"ha":833,"x_min":0,"x_max":0,"o":"m 0 -339 l 208 -339 l 208 1328 l 0 1328 z "},"▍":{"ha":833,"x_min":0,"x_max":0,"o":"m 0 -339 l 311 -339 l 313 1328 l 0 1328 z "},"▌":{"ha":833,"x_min":0,"x_max":0,"o":"m 0 -339 l 417 -339 l 417 1328 l 0 1328 z "},"▋":{"ha":833,"x_min":0,"x_max":0,"o":"m 0 -339 l 519 -339 l 521 1328 l 0 1328 z "},"▊":{"ha":833,"x_min":0,"x_max":0,"o":"m 0 -339 l 624 -339 l 625 1328 l 0 1328 z "},"▉":{"ha":833,"x_min":0,"x_max":0,"o":"m 0 -339 l 728 -339 l 729 1328 l 0 1328 z "},"▐":{"ha":833,"x_min":0,"x_max":0,"o":"m 417 -339 l 833 -339 l 833 1328 l 417 1328 z "},"▕":{"ha":833,"x_min":0,"x_max":0,"o":"m 729 -339 l 833 -339 l 833 1328 l 729 1328 z "},"▖":{"ha":833,"x_min":0,"x_max":0,"o":"m 0 -339 l 417 -339 l 417 494 l 0 494 z "},"▗":{"ha":833,"x_min":0,"x_max":0,"o":"m 417 -339 l 833 -339 l 833 494 l 417 494 z "},"▘":{"ha":833,"x_min":0,"x_max":0,"o":"m 0 494 l 417 494 l 417 1328 l 0 1328 z "},"▙":{"ha":833,"x_min":0,"x_max":0,"o":"m 0 -339 l 833 -339 l 833 494 l 417 494 l 417 1328 l 0 1328 z "},"▚":{"ha":833,"x_min":0,"x_max":0,"o":"m 0 494 l 417 494 l 417 1328 l 0 1328 z m 417 -339 l 833 -339 l 833 494 l 417 494 z "},"▛":{"ha":833,"x_min":0,"x_max":0,"o":"m 0 -339 l 417 -339 l 417 494 l 833 494 l 833 1328 l 0 1328 z "},"▜":{"ha":833,"x_min":0,"x_max":0,"o":"m 417 -339 l 833 -339 l 833 1328 l 0 1328 l 0 494 l 417 494 z "},"▝":{"ha":833,"x_min":0,"x_max":0,"o":"m 417 494 l 833 494 l 833 1328 l 417 1328 z "},"▞":{"ha":833,"x_min":0,"x_max":0,"o":"m 417 494 l 0 494 l 0 -339 l 417 -339 z m 417 494 l 833 494 l 833 1328 l 417 1328 z "},"▟":{"ha":833,"x_min":0,"x_max":0,"o":"m 0 -339 l 833 -339 l 833 1328 l 417 1328 l 417 494 l 0 494 z "},"░":{"ha":833,"x_min":0,"x_max":0,"o":"m 694 1119 l 764 1119 l 764 1189 l 694 1189 z m 0 -131 l 69 -131 l 69 -61 l 0 -61 z m 0 147 l 69 147 l 69 217 l 0 217 z m 0 425 l 69 425 l 69 494 l 0 494 z m 0 703 l 69 703 l 69 772 l 0 772 z m 0 981 l 69 981 l 69 1050 l 0 1050 z m 0 1258 l 69 1258 l 69 1328 l 0 1328 z m 139 -269 l 208 -269 l 208 -200 l 139 -200 z m 139 8 l 208 8 l 208 78 l 139 78 z m 139 286 l 208 286 l 208 356 l 139 356 z m 139 564 l 208 564 l 208 633 l 139 633 z m 139 842 l 208 842 l 208 911 l 139 911 z m 139 1119 l 208 1119 l 208 1189 l 139 1189 z m 278 -131 l 347 -131 l 347 -61 l 278 -61 z m 278 147 l 347 147 l 347 217 l 278 217 z m 278 425 l 347 425 l 347 494 l 278 494 z m 278 703 l 347 703 l 347 772 l 278 772 z m 278 981 l 347 981 l 347 1050 l 278 1050 z m 278 1258 l 347 1258 l 347 1328 l 278 1328 z m 417 -269 l 486 -269 l 486 -200 l 417 -200 z m 417 8 l 486 8 l 486 78 l 417 78 z m 417 286 l 486 286 l 486 356 l 417 356 z m 417 564 l 486 564 l 486 633 l 417 633 z m 417 842 l 486 842 l 486 911 l 417 911 z m 417 1119 l 486 1119 l 486 1189 l 417 1189 z m 556 -131 l 625 -131 l 625 -61 l 556 -61 z m 556 147 l 625 147 l 625 217 l 556 217 z m 556 425 l 625 425 l 625 494 l 556 494 z m 556 703 l 625 703 l 625 772 l 556 772 z m 556 981 l 625 981 l 625 1050 l 556 1050 z m 556 1258 l 625 1258 l 625 1328 l 556 1328 z m 694 -269 l 764 -269 l 764 -200 l 694 -200 z m 694 8 l 764 8 l 764 78 l 694 78 z m 694 286 l 764 286 l 764 356 l 694 356 z m 694 564 l 764 564 l 764 633 l 694 633 z m 694 842 l 764 842 l 764 911 l 694 911 z "},"▒":{"ha":833,"x_min":0,"x_max":0,"o":"m 694 1258 l 764 1258 l 764 1328 l 694 1328 z m 0 -131 l 69 -131 l 69 -61 l 0 -61 z m 0 147 l 69 147 l 69 217 l 0 217 z m 0 425 l 69 425 l 69 494 l 0 494 z m 0 703 l 69 703 l 69 772 l 0 772 z m 0 981 l 69 981 l 69 1050 l 0 1050 z m 0 1258 l 69 1258 l 69 1328 l 0 1328 z m 69 -269 l 139 -269 l 139 -200 l 69 -200 z m 69 8 l 139 8 l 139 78 l 69 78 z m 69 286 l 139 286 l 139 356 l 69 356 z m 69 564 l 139 564 l 139 633 l 69 633 z m 69 842 l 139 842 l 139 911 l 69 911 z m 69 1119 l 139 1119 l 139 1189 l 69 1189 z m 139 -131 l 208 -131 l 208 -61 l 139 -61 z m 139 147 l 208 147 l 208 217 l 139 217 z m 139 425 l 208 425 l 208 494 l 139 494 z m 139 703 l 208 703 l 208 772 l 139 772 z m 139 981 l 208 981 l 208 1050 l 139 1050 z m 139 1258 l 208 1258 l 208 1328 l 139 1328 z m 208 -269 l 278 -269 l 278 -200 l 208 -200 z m 208 8 l 278 8 l 278 78 l 208 78 z m 208 286 l 278 286 l 278 356 l 208 356 z m 208 564 l 278 564 l 278 633 l 208 633 z m 208 842 l 278 842 l 278 911 l 208 911 z m 208 1119 l 278 1119 l 278 1189 l 208 1189 z m 278 -131 l 347 -131 l 347 -61 l 278 -61 z m 278 147 l 347 147 l 347 217 l 278 217 z m 278 425 l 347 425 l 347 494 l 278 494 z m 278 703 l 347 703 l 347 772 l 278 772 z m 278 981 l 347 981 l 347 1050 l 278 1050 z m 278 1258 l 347 1258 l 347 1328 l 278 1328 z m 347 -269 l 417 -269 l 417 -200 l 347 -200 z m 347 8 l 417 8 l 417 78 l 347 78 z m 347 286 l 417 286 l 417 356 l 347 356 z m 347 564 l 417 564 l 417 633 l 347 633 z m 347 842 l 417 842 l 417 911 l 347 911 z m 347 1119 l 417 1119 l 417 1189 l 347 1189 z m 417 -131 l 486 -131 l 486 -61 l 417 -61 z m 417 147 l 486 147 l 486 217 l 417 217 z m 417 425 l 486 425 l 486 494 l 417 494 z m 417 703 l 486 703 l 486 772 l 417 772 z m 417 981 l 486 981 l 486 1050 l 417 1050 z m 417 1258 l 486 1258 l 486 1328 l 417 1328 z m 486 -269 l 556 -269 l 556 -200 l 486 -200 z m 486 8 l 556 8 l 556 78 l 486 78 z m 486 286 l 556 286 l 556 356 l 486 356 z m 486 564 l 556 564 l 556 633 l 486 633 z m 486 842 l 556 842 l 556 911 l 486 911 z m 486 1119 l 556 1119 l 556 1189 l 486 1189 z m 556 -131 l 625 -131 l 625 -61 l 556 -61 z m 556 147 l 625 147 l 625 217 l 556 217 z m 556 425 l 625 425 l 625 494 l 556 494 z m 556 703 l 625 703 l 625 772 l 556 772 z m 556 981 l 625 981 l 625 1050 l 556 1050 z m 556 1258 l 625 1258 l 625 1328 l 556 1328 z m 625 -269 l 694 -269 l 694 -200 l 625 -200 z m 625 8 l 694 8 l 694 78 l 625 78 z m 625 286 l 694 286 l 694 356 l 625 356 z m 625 564 l 694 564 l 694 633 l 625 633 z m 625 842 l 694 842 l 694 911 l 625 911 z m 625 1119 l 694 1119 l 694 1189 l 625 1189 z m 694 -131 l 764 -131 l 764 -61 l 694 -61 z m 694 147 l 764 147 l 764 217 l 694 217 z m 694 425 l 764 425 l 764 494 l 694 494 z m 694 703 l 764 703 l 764 772 l 694 772 z m 694 981 l 764 981 l 764 1050 l 694 1050 z m 764 -269 l 833 -269 l 833 -200 l 764 -200 z m 764 8 l 833 8 l 833 78 l 764 78 z m 764 286 l 833 286 l 833 356 l 764 356 z m 764 564 l 833 564 l 833 633 l 764 633 z m 764 842 l 833 842 l 833 911 l 764 911 z m 764 1119 l 833 1119 l 833 1189 l 764 1189 z "},"▓":{"ha":833,"x_min":0,"x_max":0,"o":"m 69 -339 l 139 -339 l 139 -269 l 208 -269 l 208 -339 l 278 -339 l 278 -269 l 347 -269 l 347 -339 l 417 -339 l 417 -269 l 486 -269 l 486 -339 l 556 -339 l 556 -269 l 625 -269 l 625 -339 l 694 -339 l 694 -269 l 764 -269 l 764 -339 l 833 -339 l 833 -200 l 764 -200 l 764 -131 l 833 -131 l 833 78 l 764 78 l 764 147 l 833 147 l 833 356 l 764 356 l 764 425 l 833 425 l 833 633 l 764 633 l 764 703 l 833 703 l 833 911 l 764 911 l 764 981 l 833 981 l 833 1189 l 764 1189 l 764 1258 l 833 1258 l 833 1328 l 0 1328 l 0 1119 l 69 1119 l 69 1050 l 0 1050 l 0 842 l 69 842 l 69 772 l 0 772 l 0 564 l 69 564 l 69 494 l 0 494 l 0 286 l 69 286 l 69 217 l 0 217 l 0 8 l 69 8 l 69 -61 l 0 -61 l 0 -269 l 69 -269 z m 69 -200 l 69 -131 l 139 -131 l 139 -200 z m 69 78 l 69 147 l 139 147 l 139 78 z m 69 356 l 69 425 l 139 425 l 139 356 z m 69 633 l 69 703 l 139 703 l 139 633 z m 69 911 l 69 981 l 139 981 l 139 911 z m 69 1189 l 69 1258 l 139 1258 l 139 1189 z m 139 -61 l 139 8 l 208 8 l 208 -61 z m 139 217 l 139 286 l 208 286 l 208 217 z m 139 494 l 139 564 l 208 564 l 208 494 z m 139 772 l 139 842 l 208 842 l 208 772 z m 139 1050 l 139 1119 l 208 1119 l 208 1050 z m 208 -200 l 208 -131 l 278 -131 l 278 -200 z m 208 78 l 208 147 l 278 147 l 278 78 z m 208 356 l 208 425 l 278 425 l 278 356 z m 208 633 l 208 703 l 278 703 l 278 633 z m 208 911 l 208 981 l 278 981 l 278 911 z m 208 1189 l 208 1258 l 278 1258 l 278 1189 z m 278 -61 l 278 8 l 347 8 l 347 -61 z m 278 217 l 278 286 l 347 286 l 347 217 z m 278 494 l 278 564 l 347 564 l 347 494 z m 278 772 l 278 842 l 347 842 l 347 772 z m 278 1050 l 278 1119 l 347 1119 l 347 1050 z m 347 -200 l 347 -131 l 417 -131 l 417 -200 z m 347 78 l 347 147 l 417 147 l 417 78 z m 347 356 l 347 425 l 417 425 l 417 356 z m 347 633 l 347 703 l 417 703 l 417 633 z m 347 911 l 347 981 l 417 981 l 417 911 z m 347 1189 l 347 1258 l 417 1258 l 417 1189 z m 417 -61 l 417 8 l 486 8 l 486 -61 z m 417 217 l 417 286 l 486 286 l 486 217 z m 417 494 l 417 564 l 486 564 l 486 494 z m 417 772 l 417 842 l 486 842 l 486 772 z m 417 1050 l 417 1119 l 486 1119 l 486 1050 z m 486 -200 l 486 -131 l 556 -131 l 556 -200 z m 486 78 l 486 147 l 556 147 l 556 78 z m 486 356 l 486 425 l 556 425 l 556 356 z m 486 633 l 486 703 l 556 703 l 556 633 z m 486 911 l 486 981 l 556 981 l 556 911 z m 486 1189 l 486 1258 l 556 1258 l 556 1189 z m 556 -61 l 556 8 l 625 8 l 625 -61 z m 556 217 l 556 286 l 625 286 l 625 217 z m 556 494 l 556 564 l 625 564 l 625 494 z m 556 772 l 556 842 l 625 842 l 625 772 z m 556 1050 l 556 1119 l 625 1119 l 625 1050 z m 625 -200 l 625 -131 l 694 -131 l 694 -200 z m 625 78 l 625 147 l 694 147 l 694 78 z m 625 356 l 625 425 l 694 425 l 694 356 z m 625 633 l 625 703 l 694 703 l 694 633 z m 625 911 l 625 981 l 694 981 l 694 911 z m 625 1189 l 625 1258 l 694 1258 l 694 1189 z m 694 -61 l 694 8 l 764 8 l 764 -61 z m 694 217 l 694 286 l 764 286 l 764 217 z m 694 494 l 694 564 l 764 564 l 764 494 z m 694 772 l 694 842 l 764 842 l 764 772 z m 694 1050 l 694 1119 l 764 1119 l 764 1050 z "},"◌":{"ha":833,"x_min":0,"x_max":0,"o":"m 699 476 b 747 526 731 476 747 494 b 699 576 747 558 731 576 b 650 526 667 576 650 558 b 699 476 650 494 667 476 z m 40 364 b 89 314 40 332 57 314 b 138 364 121 314 138 332 b 89 414 138 396 121 414 b 40 364 57 414 40 396 z m 83 200 b 132 150 83 168 100 150 b 181 200 164 150 181 168 b 132 250 181 232 164 250 b 83 200 100 250 83 232 z m 83 526 b 132 476 83 494 100 476 b 181 526 164 476 181 494 b 132 576 181 558 164 576 b 83 526 100 576 83 558 z m 206 78 b 254 28 206 46 222 28 b 303 78 286 28 303 46 b 254 128 303 110 286 128 b 206 78 222 128 206 110 z m 206 649 b 254 599 206 617 222 599 b 303 649 286 599 303 617 b 254 699 303 681 286 699 b 206 649 222 699 206 681 z m 367 36 b 415 -14 367 4 383 -14 b 464 36 447 -14 464 4 b 415 86 464 68 447 86 b 367 36 383 86 367 68 z m 367 689 b 415 639 367 657 383 639 b 464 689 447 639 464 657 b 415 739 464 721 447 739 b 367 689 383 739 367 721 z m 528 78 b 576 28 528 46 544 28 b 625 78 608 28 625 46 b 576 128 625 110 608 128 b 528 78 544 128 528 110 z m 528 649 b 576 599 528 617 544 599 b 625 649 608 599 625 617 b 576 699 625 681 608 699 b 528 649 544 699 528 681 z m 650 200 b 699 150 650 168 667 150 b 747 200 731 150 747 168 b 699 250 747 232 731 250 b 650 200 667 250 650 232 z m 693 364 b 742 314 693 332 710 314 b 790 364 774 314 790 332 b 742 414 790 396 774 414 b 693 364 710 414 693 396 z "},"◊":{"ha":833,"x_min":0,"x_max":0,"o":"m 368 0 l 464 0 l 718 454 l 718 463 l 464 917 l 368 917 l 114 463 l 114 454 z m 226 458 l 411 808 l 419 808 l 606 458 l 421 111 l 413 111 z "},"■":{"ha":833,"x_min":0,"x_max":0,"o":"m 0 53 l 833 53 l 833 886 l 0 886 z "},"▲":{"ha":833,"x_min":0,"x_max":0,"o":"m 90 139 l 743 139 b 764 179 764 139 774 158 l 443 850 b 390 850 431 878 404 878 l 69 179 b 90 139 58 158 69 139 z "},"▶":{"ha":833,"x_min":0,"x_max":0,"o":"m 92 143 l 763 464 b 763 517 790 476 790 503 l 92 838 b 51 817 71 849 51 838 l 51 164 b 92 143 51 146 68 132 z "},"▼":{"ha":833,"x_min":0,"x_max":0,"o":"m 69 831 l 390 160 b 443 160 404 132 431 132 l 764 831 b 743 871 775 854 761 871 l 90 871 b 69 831 69 871 58 851 z "},"◀":{"ha":833,"x_min":0,"x_max":0,"o":"m 72 464 l 743 143 b 783 164 767 132 783 146 l 783 817 b 743 838 783 838 764 849 l 72 517 b 72 464 44 503 44 476 z "},"△":{"ha":833,"x_min":0,"x_max":0,"o":"m 90 139 l 743 139 b 764 179 764 139 774 158 l 443 850 b 390 850 431 878 404 878 l 69 179 b 90 139 60 158 69 139 z m 203 254 l 401 668 b 432 668 410 685 424 685 l 631 254 b 614 228 638 239 631 228 l 219 228 b 203 254 203 228 196 239 z "},"▷":{"ha":833,"x_min":0,"x_max":0,"o":"m 92 143 l 763 464 b 763 517 790 476 790 503 l 92 838 b 51 817 71 847 51 838 l 51 164 b 92 143 51 146 68 132 z m 140 293 l 140 688 b 167 704 140 704 151 711 l 581 506 b 581 475 597 497 597 483 l 167 276 b 140 293 151 269 140 276 z "},"▽":{"ha":833,"x_min":0,"x_max":0,"o":"m 69 831 l 390 160 b 443 160 403 132 429 132 l 764 831 b 743 871 774 851 764 871 l 90 871 b 69 831 72 871 58 854 z m 203 756 b 219 782 196 769 201 782 l 614 782 b 631 756 631 782 638 771 l 432 342 b 401 342 424 325 410 325 z "},"◁":{"ha":833,"x_min":0,"x_max":0,"o":"m 72 464 l 743 143 b 783 164 767 132 783 146 l 783 817 b 743 838 783 838 764 847 l 72 517 b 72 464 44 503 44 476 z m 254 475 b 254 506 238 483 238 497 l 668 704 b 694 688 683 711 694 704 l 694 293 b 668 276 694 276 683 269 z "},"╦":{"ha":833,"x_min":0,"x_max":0,"o":"m 0 546 l 833 546 l 833 650 l 0 650 z m 0 338 l 260 338 l 260 -339 l 365 -339 l 365 442 l 0 442 z m 469 -339 l 575 -339 l 575 338 l 833 338 l 833 442 l 469 442 z "},"╗":{"ha":833,"x_min":0,"x_max":0,"o":"m 469 -339 l 574 -339 l 574 650 l 0 650 l 0 546 l 469 546 z m 0 338 l 261 338 l 261 -339 l 365 -339 l 365 442 l 0 442 z "},"╔":{"ha":833,"x_min":0,"x_max":0,"o":"m 261 -339 l 365 -339 l 365 546 l 833 546 l 833 650 l 261 650 z m 469 -339 l 574 -339 l 574 338 l 833 338 l 833 442 l 469 442 z "},"═":{"ha":833,"x_min":0,"x_max":0,"o":"m 0 546 l 833 546 l 833 650 l 0 650 z m 0 338 l 833 338 l 833 442 l 0 442 z "},"╩":{"ha":833,"x_min":0,"x_max":0,"o":"m 0 338 l 833 338 l 833 442 l 0 442 z m 0 546 l 365 546 l 365 1328 l 260 1328 l 260 650 l 0 650 z m 469 546 l 833 546 l 833 650 l 575 650 l 575 1328 l 469 1328 z "},"╝":{"ha":833,"x_min":0,"x_max":0,"o":"m 0 338 l 574 338 l 574 1328 l 469 1328 l 469 442 l 0 442 z m 0 546 l 365 546 l 365 1328 l 261 1328 l 261 650 l 0 650 z "},"╚":{"ha":833,"x_min":0,"x_max":0,"o":"m 261 338 l 833 338 l 833 442 l 365 442 l 365 1328 l 261 1328 z m 469 546 l 833 546 l 833 650 l 574 650 l 574 1328 l 469 1328 z "},"║":{"ha":833,"x_min":0,"x_max":0,"o":"m 469 -339 l 574 -339 l 574 1328 l 469 1328 z m 261 -339 l 365 -339 l 365 1328 l 261 1328 z "},"╬":{"ha":833,"x_min":0,"x_max":0,"o":"m 469 546 l 833 546 l 833 650 l 574 650 l 574 1328 l 469 1328 z m 0 338 l 261 338 l 261 -339 l 365 -339 l 365 442 l 0 442 z m 0 546 l 365 546 l 365 1328 l 261 1328 l 261 650 l 0 650 z m 469 -339 l 574 -339 l 574 338 l 833 338 l 833 442 l 469 442 z "},"╣":{"ha":833,"x_min":0,"x_max":0,"o":"m 469 -339 l 574 -339 l 574 1328 l 469 1328 z m 0 338 l 261 338 l 261 -339 l 365 -339 l 365 442 l 0 442 z m 0 546 l 365 546 l 365 1328 l 261 1328 l 261 650 l 0 650 z "},"╠":{"ha":833,"x_min":0,"x_max":0,"o":"m 261 -339 l 365 -339 l 365 1328 l 261 1328 z m 469 338 l 471 -339 l 575 -339 l 574 338 l 833 338 l 833 442 l 469 442 z m 469 546 l 833 546 l 833 650 l 574 650 l 575 1328 l 471 1328 l 469 650 z "},"╳":{"ha":833,"x_min":0,"x_max":0,"o":"m 756 -339 l 360 494 l 417 615 l 474 494 l 78 -339 l 0 -339 l 0 -261 l 360 494 l 0 1250 l 0 1328 l 78 1328 l 417 615 l 756 1328 l 833 1328 l 833 1250 l 474 494 l 833 -261 l 833 -339 z "},"╲":{"ha":833,"x_min":0,"x_max":0,"o":"m 756 -339 l 833 -339 l 833 -261 l 78 1328 l 0 1328 l 0 1250 z "},"╱":{"ha":833,"x_min":0,"x_max":0,"o":"m 0 -339 l 78 -339 l 833 1250 l 833 1328 l 756 1328 l 0 -261 z "},"┬":{"ha":833,"x_min":0,"x_max":0,"o":"m 365 -339 l 469 -339 l 469 442 l 833 442 l 833 546 l 0 546 l 0 442 l 365 442 z "},"┐":{"ha":833,"x_min":0,"x_max":0,"o":"m 365 -339 l 469 -339 l 469 546 l 0 546 l 0 442 l 365 442 z "},"┌":{"ha":833,"x_min":0,"x_max":0,"o":"m 365 -339 l 469 -339 l 469 443 l 833 443 l 833 547 l 365 547 z "},"─":{"ha":833,"x_min":0,"x_max":0,"o":"m 0 442 l 833 442 l 833 546 l 0 546 z "},"┴":{"ha":833,"x_min":0,"x_max":0,"o":"m 0 442 l 833 442 l 833 546 l 469 546 l 469 1328 l 365 1328 l 365 546 l 0 546 z "},"┘":{"ha":833,"x_min":0,"x_max":0,"o":"m 0 442 l 469 442 l 469 1328 l 365 1328 l 365 546 l 0 546 z "},"└":{"ha":833,"x_min":0,"x_max":0,"o":"m 365 442 l 833 442 l 833 546 l 469 546 l 469 1328 l 365 1328 z "},"│":{"ha":833,"x_min":0,"x_max":0,"o":"m 365 -339 l 469 -339 l 469 1328 l 365 1328 z "},"┼":{"ha":833,"x_min":0,"x_max":0,"o":"m 364 -339 l 468 -339 l 468 442 l 833 442 l 833 546 l 468 546 l 468 1328 l 364 1328 l 364 546 l 0 546 l 0 442 l 364 442 z "},"┤":{"ha":833,"x_min":0,"x_max":0,"o":"m 365 -339 l 469 -339 l 469 1328 l 365 1328 l 365 546 l 0 546 l 0 442 l 365 442 z "},"├":{"ha":833,"x_min":0,"x_max":0,"o":"m 365 -339 l 469 -339 l 469 442 l 833 442 l 833 546 l 469 546 l 469 1328 l 365 1328 l 365 546 l 364 546 l 364 442 l 365 442 z "},"�":{"ha":833,"x_min":0,"x_max":0,"o":"m 394 0 l 439 0 l 833 472 l 833 517 l 439 1003 l 394 1003 l 0 517 l 0 472 z m 271 600 b 422 717 272 697 297 717 b 575 578 549 717 575 693 b 431 406 575 439 431 469 l 431 367 l 372 367 l 372 406 b 515 578 372 524 515 465 b 422 667 515 651 499 667 b 333 600 349 667 333 654 z m 354 217 l 354 317 l 453 317 l 453 217 z "},"΄":{"ha":833,"x_min":0,"x_max":0,"o":"m 378 838 l 593 1083 l 431 1083 l 239 838 z "},"̈":{"ha":833,"x_min":0,"x_max":0,"o":"m 483 875 l 631 875 l 631 1025 l 483 1025 z m 203 875 l 350 875 l 350 1025 l 203 1025 z "},"̇":{"ha":833,"x_min":0,"x_max":0,"o":"m 343 875 l 490 875 l 490 1025 l 343 1025 z "},"̀":{"ha":833,"x_min":0,"x_max":0,"o":"m 451 838 l 590 838 l 399 1083 l 236 1083 z "},"́":{"ha":833,"x_min":0,"x_max":0,"o":"m 381 838 l 596 1083 l 433 1083 l 242 838 z "},"̋":{"ha":833,"x_min":0,"x_max":0,"o":"m 228 838 l 443 1083 l 281 1083 l 89 838 z m 394 839 l 533 839 l 749 1085 l 586 1085 z "},"̂":{"ha":833,"x_min":0,"x_max":0,"o":"m 157 832 l 279 832 l 404 985 l 428 985 l 553 832 l 675 832 l 469 1083 l 363 1083 z "},"̌":{"ha":833,"x_min":0,"x_max":0,"o":"m 157 1083 l 363 832 l 469 832 l 675 1083 l 553 1083 l 428 931 l 404 931 l 279 1083 z "},"̆":{"ha":833,"x_min":0,"x_max":0,"o":"m 417 860 b 654 1057 561 860 629 917 l 553 1057 b 417 949 532 979 493 949 b 281 1057 340 949 301 979 l 179 1057 b 417 860 203 917 271 860 z "},"̊":{"ha":833,"x_min":0,"x_max":0,"o":"m 415 822 b 556 958 515 822 556 861 b 415 1097 556 1057 515 1097 b 279 958 318 1097 279 1057 b 415 822 279 861 318 822 z m 356 958 b 415 1032 356 1013 371 1032 b 479 958 463 1032 479 1013 b 415 890 479 908 463 890 b 356 958 371 890 356 908 z "},"̃":{"ha":833,"x_min":0,"x_max":0,"o":"m 538 826 b 678 1017 663 826 678 849 l 588 1017 b 543 907 588 917 585 907 b 444 976 517 907 504 917 b 293 1054 376 1046 353 1054 b 154 868 169 1054 154 1033 l 246 868 b 289 972 246 964 249 972 b 392 903 317 972 333 961 b 538 826 460 833 479 826 z "},"̄":{"ha":833,"x_min":0,"x_max":0,"o":"m 206 918 l 626 918 l 626 1010 l 206 1010 z "},"̒":{"ha":833,"x_min":0,"x_max":0,"o":"m 311 843 l 436 843 l 521 1103 l 422 1103 z "},"̦":{"ha":833,"x_min":0,"x_max":0,"o":"m 311 -361 l 410 -361 l 521 -101 l 396 -101 z "},"̧":{"ha":833,"x_min":0,"x_max":0,"o":"m 418 -324 b 578 -199 542 -324 578 -296 b 414 -89 578 -114 549 -90 l 492 0 l 394 0 l 340 -94 l 340 -154 l 390 -154 b 490 -201 467 -154 490 -164 b 410 -253 490 -240 471 -253 b 332 -244 371 -253 353 -250 l 332 -312 b 418 -324 364 -321 383 -324 z "},"̨":{"ha":833,"x_min":0,"x_max":0,"o":"m 442 -242 b 522 -231 465 -242 483 -239 l 522 -162 b 468 -171 503 -169 490 -171 b 401 -106 408 -171 393 -156 b 489 -24 407 -71 426 -51 l 542 0 l 425 0 b 313 -110 344 -39 319 -64 b 442 -242 296 -211 325 -242 z "},"¨":{"ha":833,"x_min":0,"x_max":0,"o":"m 483 875 l 631 875 l 631 1025 l 483 1025 z m 203 875 l 350 875 l 350 1025 l 203 1025 z "},"˙":{"ha":833,"x_min":0,"x_max":0,"o":"m 340 875 l 488 875 l 488 1025 l 340 1025 z "},"`":{"ha":833,"x_min":0,"x_max":0,"o":"m 447 838 l 586 838 l 394 1083 l 232 1083 z "},"´":{"ha":833,"x_min":0,"x_max":0,"o":"m 378 838 l 593 1083 l 431 1083 l 239 838 z "},"˝":{"ha":833,"x_min":0,"x_max":0,"o":"m 228 838 l 443 1083 l 281 1083 l 89 838 z m 394 839 l 533 839 l 749 1085 l 586 1085 z "},"ˆ":{"ha":833,"x_min":0,"x_max":0,"o":"m 157 832 l 279 832 l 404 985 l 428 985 l 553 832 l 675 832 l 469 1083 l 363 1083 z "},"ˇ":{"ha":833,"x_min":0,"x_max":0,"o":"m 157 1083 l 363 832 l 469 832 l 675 1083 l 553 1083 l 428 931 l 404 931 l 279 1083 z "},"˘":{"ha":833,"x_min":0,"x_max":0,"o":"m 417 860 b 654 1057 561 860 629 917 l 553 1057 b 417 949 532 979 493 949 b 281 1057 340 949 301 979 l 179 1057 b 417 860 203 917 271 860 z "},"˚":{"ha":833,"x_min":0,"x_max":0,"o":"m 415 822 b 556 958 515 822 556 861 b 415 1097 556 1057 515 1097 b 279 958 318 1097 279 1057 b 415 822 279 861 318 822 z m 356 958 b 415 1032 356 1013 371 1032 b 479 958 463 1032 479 1013 b 415 890 479 908 463 890 b 356 958 371 890 356 908 z "},"˜":{"ha":833,"x_min":0,"x_max":0,"o":"m 539 826 b 679 1017 664 826 679 849 l 589 1017 b 544 907 589 917 586 907 b 446 976 518 907 506 917 b 294 1054 378 1046 354 1054 b 156 868 171 1054 156 1033 l 247 868 b 290 972 247 964 250 972 b 393 903 318 972 335 961 b 539 826 461 833 481 826 z "},"¯":{"ha":833,"x_min":0,"x_max":0,"o":"m 206 918 l 626 918 l 626 1010 l 206 1010 z "},"¸":{"ha":833,"x_min":0,"x_max":0,"o":"m 415 -324 b 575 -199 539 -324 575 -296 b 411 -89 575 -114 546 -90 l 489 0 l 392 0 l 338 -94 l 338 -154 l 388 -154 b 488 -201 464 -154 488 -164 b 407 -253 488 -240 468 -253 b 329 -244 368 -253 350 -250 l 329 -312 b 415 -324 361 -321 381 -324 z "},"˛":{"ha":833,"x_min":0,"x_max":0,"o":"m 442 -242 b 522 -231 465 -242 483 -239 l 522 -162 b 468 -171 503 -169 490 -171 b 401 -106 408 -171 393 -156 b 489 -24 407 -71 426 -51 l 542 0 l 425 0 b 313 -110 344 -39 319 -64 b 442 -242 296 -211 325 -242 z "},"":{"ha":833,"x_min":0,"x_max":0,"o":"m 172 -69 l 322 -69 b 322 201 322 74 317 58 b 664 613 328 349 656 396 b 664 811 665 665 664 758 l 761 693 l 761 840 l 611 988 l 600 988 l 449 840 l 449 693 l 547 813 b 547 613 547 760 550 665 b 172 201 539 467 178 411 b 172 -69 168 58 172 74 z m 181 446 l 331 549 l 331 988 l 181 988 z "},"":{"ha":833,"x_min":0,"x_max":0,"o":"m 265 0 l 351 0 l 351 272 l 342 371 l 343 371 l 513 0 l 621 0 l 621 472 l 536 472 l 536 201 l 546 103 l 543 103 l 374 472 l 265 472 z m 261 633 l 589 633 l 589 711 l 350 711 l 350 1104 l 261 1104 z "},"":{"ha":833,"x_min":0,"x_max":0,"o":"m 163 -31 l 671 -31 b 719 18 708 -31 719 -19 l 719 608 b 671 657 719 646 708 657 l 611 657 l 611 951 b 544 1018 611 1004 597 1018 l 289 1018 b 222 951 236 1018 222 1004 l 222 657 l 163 657 b 114 608 125 657 114 646 l 114 18 b 163 -31 114 -19 125 -31 z m 306 657 l 306 906 b 339 939 306 932 313 939 l 494 939 b 528 906 521 939 528 932 l 528 657 z m 331 344 b 417 431 331 392 369 431 b 503 344 464 431 503 392 b 447 264 503 308 479 276 l 447 153 l 386 153 l 386 264 b 331 344 354 276 331 308 z "},"":{"ha":833,"x_min":0,"x_max":0,"o":"m 265 0 l 351 0 l 351 272 l 342 371 l 343 371 l 513 0 l 621 0 l 621 472 l 536 472 l 536 201 l 546 103 l 543 103 l 374 472 l 265 472 z m 263 875 b 449 633 263 689 304 633 b 615 771 571 633 608 664 l 528 771 b 449 708 521 722 503 708 b 351 875 374 708 351 747 b 449 1043 351 1004 374 1043 b 524 976 497 1043 515 1028 l 611 976 b 449 1118 607 1086 569 1118 b 263 875 304 1118 263 1063 z "},"":{"ha":833,"x_min":0,"x_max":0,"o":"m 0 -339 l 832 461 l 832 528 l 0 1328 z "},"":{"ha":833,"x_min":0,"x_max":0,"o":"m 0 -339 l 833 461 l 833 528 l 0 1328 l 0 1161 l 700 494 l 0 -172 z "},"":{"ha":833,"x_min":0,"x_max":0,"o":"m 832 -339 l 832 1328 l 0 528 l 0 461 z "},"":{"ha":833,"x_min":0,"x_max":0,"o":"m 833 -339 l 833 -172 l 133 494 l 833 1161 l 833 1328 l 0 528 l 0 461 z "}}}
